<?xml version="1.0" encoding="UTF-8" standalone="no"?>
<svg width="61px" height="54px" viewBox="0 0 61 54" version="1.1" xmlns="http://www.w3.org/2000/svg" xmlns:xlink="http://www.w3.org/1999/xlink">
    <!-- Generator: Sketch 39.1 (31720) - http://www.bohemiancoding.com/sketch -->
    <title>Fill 1</title>
    <desc>Created with Sketch.</desc>
    <defs></defs>
    <g id="Page-1" stroke="none" stroke-width="1" fill="none" fill-rule="evenodd">
        <path d="M60.259,33.182 C59.18,33.569 58.795,33.578 58.442,33.644 C57.874,33.756 57.336,33.578 56.786,33.532 C55.517,33.418 57.334,31.968 57.559,31.64 C58.06,30.909 58.352,30.69 58.714,29.597 C58.906,29.018 59.654,27.618 59.098,27.363 C58.544,27.097 57.677,27.943 57.4,28.226 C56.95,28.69 56.523,29.18 55.987,29.559 C55.517,29.889 55.139,30.51 54.438,29.831 C54.204,29.605 53.791,29.889 53.568,30.079 C52.481,31.032 51.168,31.63 49.983,32.44 C49.207,32.973 48.399,33.578 47.449,33.738 C45.684,34.035 43.515,32.764 42.173,31.734 C41.063,30.889 39.701,29.495 40.058,27.96 C40.473,26.186 41.2,24.503 42.553,23.252 C43.128,22.721 43.647,22.137 44.198,21.587 C45.523,20.274 47.104,19.517 48.876,19.036 C48.361,18.649 48.361,18.63 47.568,18.701 C45.436,18.878 43.543,18.329 41.874,16.952 C40.651,15.94 39.036,15.77 37.626,15.189 C36.465,14.715 35.81,15.753 34.386,15.214 C34.36,15.644 34.981,16.207 35.31,16.331 C36.123,16.643 35.857,17.298 35.889,17.76 C35.943,18.572 36.027,18.996 36.445,19.639 C37.471,21.218 36.333,22.178 35.543,23.221 C34.533,24.563 33.44,23.951 32.516,23.326 C31.501,22.632 30.508,21.273 29.861,20.179 C28.808,18.389 28.471,16.232 27.698,14.32 C27.25,13.215 26.696,12.121 26.558,10.917 C26.413,9.657 26.66,8.369 26.959,7.147 C27.27,5.881 27.685,4.637 28.139,3.417 C26.52,3.342 26.355,5.073 25.63,5.268 C25.286,3.342 26.531,2.697 26.404,1.377 C24.436,1.992 24.629,3.072 23.126,5.924 C22.204,4.501 23.957,2.962 23.824,1.593 C23.859,0.99 23.77,0.015 23.551,0.486 C23.1,1.455 22.406,2.532 21.894,3.456 C21.596,3.986 21.084,5.384 21.005,6.581 C20.58,7.313 19.772,7.159 19.926,6.311 C20.054,5.618 19.926,3.804 20.967,0.566 C21.038,0.349 19.968,0.99 19.741,1.469 C19.072,2.366 19.061,3.466 18.839,4.489 C18.625,5.467 18.494,6.479 18.402,7.477 C18.353,7.984 17.776,9.195 17.083,8.728 C16.726,8.623 16.519,7.797 16.458,7.697 C16.287,7.437 16.307,6.253 16.273,5.951 C16.206,5.34 16.344,4.528 15.828,4.073 C14.858,4.73 15.028,7.345 15.082,8.384 C15.123,9.161 15.248,9.932 15.427,10.688 C15.527,11.116 15.761,12.743 16.135,12.974 C13.966,11.638 13.98,8.959 11.953,7.641 C11.717,8.96 11.51,10.066 11.33,11.167 C11.271,11.525 11.279,11.85 10.954,12.135 C9.965,13.008 9.805,14.149 10.437,15.39 C10.615,15.736 11.016,16.687 10.712,16.873 C9.528,17.587 9.652,18.261 9.632,19.189 C9.618,19.907 10.918,20.454 10.406,21.191 C10.387,21.218 10.775,21.83 10.326,22.309 C9.709,22.964 9.477,24.198 12.139,25.356 C12.762,25.626 11.744,27.075 11.985,27.516 C12.602,28.632 13.141,27.775 14.145,29.057 C13.02,30.035 13.024,30.27 14.145,31.178 C14.686,31.616 15.452,31.479 16.111,31.757 C15.587,33.758 16.379,35.305 18.287,35.049 C18.423,35.844 18.5,36.924 17.487,36.881 C15.184,36.775 12.41,35.711 10.2,34.92 C8.801,34.414 7.254,34.385 5.79,34.582 C5.012,34.692 4.212,34.279 4.119,35.288 C4.071,35.82 3.841,36.183 3.475,36.238 C2.573,36.368 1.713,36.52 1.709,37.423 C1.707,37.564 1.883,38.349 1.043,39.1 C-0.184,40.207 0.871,40.847 0.807,42.502 C0.763,43.665 -0.054,43.902 0.003,44.594 C0.061,45.289 1.248,44.825 1.537,46.444 C1.824,48.067 3.964,47.199 3.27,48.991 C3.044,49.575 4.31,50.665 5.099,50.272 C6.569,49.538 6.625,50.379 6.77,51.101 C7.011,52.305 7.928,52.753 9.111,52.432 C9.623,52.29 10.067,51.505 10.27,52.691 C10.415,53.55 12.119,54.139 12.553,53.414 C12.9,52.836 14.002,54.323 14.288,53.934 C16.633,54.035 18.627,52.442 19.851,49.65 C20.735,47.624 21.161,45.685 22.036,43.641 C22.153,43.358 23.143,41.834 23.514,41.705 C24.046,42.028 23.399,44.049 24.101,44.33 C24.724,44.58 25.597,43.648 26.17,43.594 C26.772,44.193 26.541,45.623 27.059,46.284 C27.827,47.268 28.787,47.262 29.874,46.6 C30.64,46.136 30.859,46.471 31.031,47.025 C31.17,47.471 31.218,48.424 31.451,48.847 C31.997,49.844 33.143,50.55 33.998,50.297 C35.129,49.961 34.873,48.878 34.927,48.121 C34.99,47.34 35.231,46.005 35.775,45.443 C36.799,46.065 36.839,47.992 37.405,48.854 C38.099,49.913 39.134,50.33 40.214,50.72 C40.716,50.9 41.018,50.58 40.953,50.1 C40.732,48.582 40.84,47.041 40.488,45.532 C40.348,44.937 40.448,44.283 40.436,43.507 C41.56,44.224 41.744,45.476 42.647,46.146 C43.699,46.934 44.733,47.733 45.999,48.176 C46.469,48.333 47.233,48.424 47.685,48.333 C48.251,48.226 48.169,47.747 47.909,47.16 C47.656,46.582 47.283,46.092 46.8,45.71 C45.952,45.041 45.605,44.017 44.937,43.225 C44.722,42.975 44.546,41.646 44.835,41.783 C45.413,42.048 45.855,42.296 46.223,42.59 C47.208,43.376 47.998,43.832 49.282,44.113 C50.725,44.426 53.641,44.215 55.058,43.33 C50.926,42.208 50.116,41.596 48.251,39.755 C49.735,41.007 51.58,40.2 53.274,40.187 C55.15,40.175 56.927,39.887 58.376,38.444 C57.426,37.306 54.435,38.617 52.702,37.152 C55.667,36.267 58.791,34.869 60.259,33.182" id="Fill-1" fill="#FFFFFF"></path>
    </g>
</svg>