<?xml version="1.0" encoding="UTF-8" standalone="no"?>
<svg width="245px" height="74px" viewBox="0 0 245 74" version="1.1" xmlns="http://www.w3.org/2000/svg" xmlns:xlink="http://www.w3.org/1999/xlink">
    <!-- Generator: Sketch 39.1 (31720) - http://www.bohemiancoding.com/sketch -->
    <title>Rise Logo White</title>
    <desc>Created with Sketch.</desc>
    <defs></defs>
    <g id="Page-1" stroke="none" stroke-width="1" fill="none" fill-rule="evenodd">
        <g id="Rise-Logo-White" fill="#FFFFFF">
            <path d="M128.284,33.691 C127.205,34.078 126.82,34.087 126.467,34.153 C125.899,34.265 125.361,34.087 124.812,34.041 C123.542,33.927 125.359,32.478 125.584,32.149 C126.085,31.418 126.377,31.199 126.739,30.106 C126.931,29.528 127.679,28.127 127.123,27.872 C126.569,27.606 125.702,28.453 125.425,28.735 C124.975,29.199 124.548,29.689 124.012,30.068 C123.542,30.398 123.164,31.02 122.463,30.34 C122.229,30.114 121.816,30.398 121.593,30.588 C120.506,31.542 119.193,32.14 118.008,32.95 C117.231,33.482 116.424,34.087 115.474,34.248 C113.709,34.544 111.54,33.273 110.198,32.244 C109.088,31.398 107.726,30.004 108.083,28.469 C108.498,26.695 109.225,25.013 110.578,23.762 C111.153,23.23 111.672,22.647 112.223,22.097 C113.548,20.783 115.129,20.027 116.901,19.545 C116.386,19.158 116.386,19.14 115.593,19.21 C113.46,19.387 111.568,18.838 109.899,17.461 C108.676,16.449 107.062,16.28 105.651,15.699 C104.49,15.225 103.834,16.263 102.411,15.723 C102.385,16.154 103.006,16.717 103.335,16.841 C104.147,17.152 103.882,17.808 103.914,18.27 C103.968,19.081 104.052,19.506 104.47,20.148 C105.496,21.727 104.358,22.688 103.568,23.731 C102.558,25.073 101.465,24.46 100.541,23.835 C99.526,23.142 98.533,21.783 97.886,20.689 C96.832,18.898 96.496,16.742 95.723,14.83 C95.275,13.724 94.721,12.63 94.582,11.427 C94.437,10.166 94.685,8.878 94.984,7.657 C95.295,6.39 95.71,5.146 96.164,3.926 C94.545,3.851 94.38,5.582 93.655,5.777 C93.311,3.851 94.556,3.206 94.429,1.886 C92.461,2.501 92.654,3.581 91.151,6.434 C90.229,5.01 91.982,3.472 91.849,2.102 C91.884,1.499 91.795,0.524 91.576,0.996 C91.124,1.964 90.431,3.041 89.919,3.965 C89.621,4.495 89.109,5.893 89.03,7.09 C88.604,7.822 87.797,7.668 87.951,6.82 C88.079,6.127 87.951,4.313 88.992,1.075 C89.063,0.858 87.993,1.499 87.766,1.978 C87.097,2.875 87.086,3.975 86.864,4.998 C86.65,5.976 86.519,6.988 86.427,7.987 C86.378,8.493 85.801,9.705 85.108,9.238 C84.751,9.132 84.544,8.306 84.483,8.206 C84.312,7.947 84.332,6.762 84.298,6.46 C84.231,5.85 84.369,5.037 83.854,4.582 C82.883,5.24 83.053,7.854 83.107,8.893 C83.148,9.67 83.273,10.441 83.452,11.197 C83.552,11.626 83.786,13.252 84.16,13.483 C81.991,12.147 82.005,9.468 79.978,8.15 C79.742,9.47 79.535,10.575 79.354,11.677 C79.296,12.034 79.304,12.36 78.979,12.644 C77.99,13.517 77.83,14.658 78.462,15.899 C78.64,16.246 79.041,17.197 78.737,17.383 C77.553,18.096 77.677,18.77 77.657,19.699 C77.643,20.417 78.943,20.963 78.431,21.701 C78.412,21.727 78.8,22.339 78.351,22.819 C77.734,23.474 77.502,24.708 80.164,25.865 C80.787,26.136 79.769,27.585 80.01,28.025 C80.627,29.141 81.166,28.285 82.17,29.566 C81.045,30.544 81.049,30.78 82.17,31.687 C82.711,32.126 83.477,31.989 84.136,32.267 C83.612,34.267 84.404,35.814 86.311,35.559 C86.448,36.354 86.525,37.434 85.512,37.39 C83.21,37.285 80.435,36.22 78.225,35.429 C76.826,34.924 75.279,34.895 73.815,35.092 C73.037,35.201 72.237,34.788 72.145,35.797 C72.096,36.33 71.866,36.692 71.5,36.748 C70.598,36.877 69.738,37.03 69.734,37.932 C69.732,38.073 69.908,38.858 69.068,39.61 C67.841,40.717 68.896,41.356 68.832,43.012 C68.788,44.174 67.971,44.411 68.028,45.103 C68.086,45.798 69.273,45.335 69.562,46.954 C69.849,48.576 71.989,47.709 71.295,49.5 C71.069,50.084 72.335,51.175 73.124,50.782 C74.594,50.047 74.65,50.889 74.795,51.611 C75.036,52.814 75.953,53.262 77.136,52.941 C77.647,52.8 78.092,52.014 78.295,53.201 C78.44,54.059 80.144,54.648 80.578,53.924 C80.925,53.345 82.027,54.832 82.313,54.444 C84.658,54.544 86.652,52.951 87.876,50.16 C88.76,48.134 89.186,46.195 90.061,44.15 C90.178,43.868 91.169,42.343 91.539,42.215 C92.071,42.538 91.424,44.558 92.127,44.84 C92.749,45.089 93.622,44.157 94.195,44.104 C94.797,44.703 94.566,46.132 95.085,46.793 C95.852,47.778 96.811,47.772 97.899,47.11 C98.665,46.645 98.884,46.981 99.056,47.535 C99.195,47.981 99.243,48.934 99.476,49.356 C100.022,50.354 101.167,51.059 102.023,50.806 C103.154,50.47 102.897,49.388 102.952,48.63 C103.015,47.849 103.256,46.515 103.8,45.953 C104.824,46.575 104.864,48.501 105.43,49.364 C106.124,50.422 107.159,50.839 108.239,51.229 C108.741,51.41 109.043,51.09 108.979,50.609 C108.757,49.092 108.865,47.55 108.513,46.041 C108.373,45.447 108.473,44.793 108.46,44.016 C109.585,44.733 109.77,45.986 110.672,46.655 C111.724,47.443 112.758,48.242 114.024,48.685 C114.494,48.843 115.258,48.934 115.709,48.843 C116.276,48.736 116.194,48.257 115.934,47.669 C115.681,47.092 115.308,46.601 114.825,46.22 C113.977,45.551 113.63,44.527 112.962,43.734 C112.747,43.484 112.571,42.155 112.86,42.293 C113.438,42.557 113.88,42.805 114.248,43.1 C115.233,43.886 116.022,44.342 117.307,44.622 C118.75,44.935 121.666,44.725 123.083,43.839 C118.951,42.717 118.141,42.105 116.276,40.265 C117.76,41.516 119.605,40.709 121.299,40.697 C123.175,40.685 124.952,40.396 126.401,38.954 C125.451,37.815 122.46,39.126 120.727,37.662 C123.692,36.777 126.816,35.378 128.284,33.691" id="Fill-1"></path>
            <path d="M0,52.936 C1.024,52.915 2.233,52.904 3.495,52.904 C4.871,52.904 6.125,52.918 7.207,52.945 C6.614,52.705 6.219,52.275 6.219,51.495 C6.219,51.032 6.355,50.514 6.528,49.858 L11.294,31.847 C11.623,30.602 12.018,29.891 12.671,29.536 C12.602,29.537 12.533,29.539 12.463,29.54 C11.57,29.559 10.604,29.578 9.465,29.578 C8.359,29.578 6.989,29.564 5.841,29.535 C6.43,29.776 6.842,30.219 6.842,31.053 C6.842,31.534 6.714,32.098 6.522,32.797 L1.986,49.928 C1.519,51.715 1.06,52.547 0,52.936" id="Fill-3"></path>
            <path d="M15.813,29.535 C17.126,30.072 17.788,31.343 17.788,33.33 C17.788,37.142 15.921,39.925 12.831,41.037 C18.758,40.314 22.427,37.575 22.427,33.854 C22.427,32.099 21.711,29.801 15.813,29.535" id="Fill-4"></path>
            <path d="M17.308,53.494 C18.623,53.494 19.641,53.191 20.431,52.53 C20.194,52.649 19.93,52.717 19.635,52.717 C19.166,52.717 18.076,52.515 18.076,50.634 C18.076,50.383 18.093,50.094 18.13,49.789 L18.585,46.224 C18.616,45.977 18.632,45.742 18.632,45.525 C18.632,43.042 16.483,42.341 12.765,42.003 C13.743,42.578 14.179,43.512 14.179,44.883 C14.179,45.211 14.15,45.6 14.091,46.071 L13.586,49.986 C13.553,50.207 13.538,50.42 13.538,50.618 C13.538,52.473 14.876,53.494 17.308,53.494" id="Fill-5"></path>
            <path d="M32.628,27.216 C30.758,27.216 29.549,28.313 29.549,30.009 C29.549,31.425 30.833,31.636 31.599,31.636 C33.373,31.636 34.711,30.465 34.711,28.912 C34.711,27.436 33.406,27.216 32.628,27.216" id="Fill-6"></path>
            <path d="M27.029,53.494 C28.107,53.494 29.012,53.191 29.739,52.589 C29.541,52.675 29.335,52.717 29.12,52.717 C28.408,52.717 27.965,52.269 27.965,51.546 C27.965,51.216 28.043,50.845 28.211,50.377 L31.836,39.809 C32.064,39.123 32.182,38.491 32.182,37.935 C32.182,36.386 31.31,35.599 29.592,35.599 C28.468,35.599 27.543,35.885 26.807,36.467 C26.995,36.397 27.197,36.359 27.416,36.359 C27.926,36.359 28.47,36.662 28.47,37.514 C28.47,37.851 28.389,38.239 28.223,38.699 L24.853,48.609 C24.518,49.612 24.354,50.431 24.354,51.108 C24.354,52.713 25.229,53.494 27.029,53.494" id="Fill-7"></path>
            <path d="M45.198,36.054 L44.913,36.384 C44.461,36.905 43.979,37.852 43.979,38.947 C43.979,40.08 44.532,40.812 45.388,40.812 C46.587,40.812 47.034,39.523 47.034,38.711 C47.034,37.434 46.418,36.545 45.198,36.054" id="Fill-8"></path>
            <path d="M42.344,43.539 C42.179,43.277 42.015,43.022 41.856,42.777 C40.943,41.364 40.22,40.246 40.22,38.795 C40.22,37.187 40.878,36.064 42.035,35.601 C38.639,35.674 36.458,37.467 36.458,40.211 C36.458,41.967 37.33,43.276 38.34,44.792 L38.522,45.066 C39.894,47.152 40.505,48.75 40.505,50.246 C40.505,51.847 39.697,53.038 38.401,53.494 C41.957,53.448 44.335,51.524 44.335,48.679 C44.335,47.117 43.665,45.723 42.344,43.539" id="Fill-9"></path>
            <path d="M35.299,53.034 L35.488,52.509 C35.712,51.907 36.02,51.082 36.02,50.163 C36.02,49.082 35.628,47.928 34.527,47.928 C33.501,47.928 33.035,48.964 33.035,49.928 C33.035,51.659 34.056,52.568 35.299,53.034" id="Fill-10"></path>
            <path d="M57.129,35.903 C51.597,37.353 47.447,43.709 47.447,49.084 C47.447,52.335 50.004,53.494 52.397,53.494 C54.811,53.494 56.838,52.437 58.317,51.087 C57.01,51.991 55.744,52.347 54.826,52.347 C52.721,52.347 51.698,51.103 51.698,48.544 C51.698,47.814 51.756,47.061 51.873,46.302 L51.846,46.314 L52.028,45.431 C52.802,41.677 54.968,37.434 57.129,35.903" id="Fill-11"></path>
            <path d="M62.593,37.867 C62.593,35.82 60.405,35.599 59.464,35.599 L59.38,35.599 C59.609,35.861 59.725,36.304 59.725,36.923 C59.725,40.05 58.029,42.256 56.606,43.556 C56.044,44.06 55.37,44.538 54.567,44.998 C58.771,43.504 62.593,41.037 62.593,37.867" id="Fill-12"></path>
            <polyline id="Fill-13" points="7.455 60.686 8.708 60.686 10.582 65.405 12.473 60.686 13.709 60.686 11.386 66.36 13.934 72.371 18.746 60.593 20.169 60.593 14.551 73.888 13.391 73.888 10.601 67.315 7.792 73.888 6.63 73.888 1.032 60.593 2.417 60.593 7.248 72.371 9.776 66.36 7.455 60.686"></polyline>
            <path d="M22.622,67.24 C22.622,67.964 22.741,68.66 22.978,69.328 C23.215,69.996 23.552,70.589 23.989,71.107 C24.426,71.626 24.944,72.037 25.543,72.342 C26.142,72.648 26.81,72.801 27.547,72.801 C28.296,72.801 28.976,72.639 29.588,72.314 C30.199,71.99 30.717,71.565 31.142,71.041 C31.566,70.517 31.894,69.924 32.126,69.262 C32.355,68.601 32.472,67.927 32.472,67.24 C32.472,66.517 32.35,65.82 32.106,65.152 C31.863,64.484 31.522,63.895 31.086,63.382 C30.649,62.871 30.131,62.462 29.532,62.156 C28.932,61.85 28.27,61.697 27.547,61.697 C26.798,61.697 26.117,61.856 25.506,62.175 C24.894,62.494 24.375,62.914 23.952,63.439 C23.527,63.963 23.199,64.556 22.969,65.218 C22.737,65.879 22.622,66.554 22.622,67.24 L22.622,67.24 Z M27.547,73.981 C26.623,73.981 25.777,73.791 25.009,73.41 C24.242,73.029 23.583,72.524 23.034,71.894 C22.484,71.263 22.06,70.542 21.761,69.731 C21.461,68.919 21.311,68.089 21.311,67.24 C21.311,66.354 21.471,65.505 21.789,64.693 C22.107,63.882 22.547,63.165 23.109,62.54 C23.67,61.916 24.332,61.42 25.094,61.051 C25.855,60.683 26.679,60.499 27.565,60.499 C28.489,60.499 29.335,60.695 30.103,61.089 C30.871,61.481 31.526,61.997 32.069,62.633 C32.612,63.271 33.033,63.992 33.333,64.796 C33.632,65.602 33.782,66.422 33.782,67.259 C33.782,68.146 33.623,68.994 33.305,69.805 C32.986,70.617 32.55,71.332 31.994,71.95 C31.438,72.567 30.78,73.061 30.019,73.429 C29.257,73.797 28.433,73.981 27.547,73.981 L27.547,73.981 Z" id="Fill-14"></path>
            <polyline id="Fill-15" points="48.65 73.888 48.65 62.97 43.801 71.416 43.033 71.416 38.164 62.97 38.164 73.888 36.872 73.888 36.872 60.593 38.202 60.593 43.407 69.693 48.613 60.593 49.943 60.593 49.943 73.888 48.65 73.888"></polyline>
            <polyline id="Fill-16" points="62.806 72.727 62.806 73.888 53.875 73.888 53.875 60.593 62.639 60.593 62.639 61.753 55.167 61.753 55.167 66.547 61.683 66.547 61.683 67.652 55.167 67.652 55.167 72.727 62.806 72.727"></polyline>
            <polyline id="Fill-17" points="67.207 63.026 67.207 73.888 65.915 73.888 65.915 60.593 66.927 60.593 75.728 71.66 75.728 60.611 77.02 60.611 77.02 73.888 75.896 73.888 67.207 63.026"></polyline>
            <path d="M80.258,60.218 C80.446,60.218 80.627,60.24 80.801,60.284 C80.977,60.328 81.132,60.396 81.27,60.489 C81.407,60.583 81.52,60.708 81.607,60.864 C81.694,61.021 81.738,61.204 81.738,61.416 L81.738,63.664 L80.652,63.664 L80.652,61.585 C80.652,61.423 80.608,61.316 80.521,61.267 C80.434,61.217 80.346,61.191 80.258,61.191 L80.258,60.218" id="Fill-18"></path>
            <path d="M93.03,63.083 C92.655,62.659 92.153,62.315 91.523,62.053 C90.892,61.791 90.184,61.66 89.397,61.66 C88.211,61.66 87.35,61.882 86.813,62.325 C86.276,62.768 86.008,63.37 86.008,64.131 C86.008,64.531 86.08,64.859 86.223,65.115 C86.367,65.371 86.591,65.592 86.897,65.78 C87.203,65.967 87.59,66.129 88.058,66.267 C88.526,66.404 89.079,66.541 89.715,66.678 C90.427,66.828 91.063,66.994 91.626,67.175 C92.187,67.356 92.668,67.586 93.068,67.867 C93.467,68.148 93.772,68.492 93.985,68.897 C94.197,69.303 94.303,69.805 94.303,70.404 C94.303,71.017 94.185,71.547 93.947,71.996 C93.711,72.446 93.379,72.82 92.955,73.12 C92.531,73.42 92.024,73.642 91.438,73.784 C90.851,73.928 90.214,74 89.528,74 C87.443,74 85.664,73.357 84.191,72.071 L84.828,71.004 C85.315,71.516 85.97,71.95 86.794,72.305 C87.619,72.661 88.536,72.839 89.547,72.839 C90.608,72.839 91.438,72.648 92.038,72.268 C92.637,71.887 92.937,71.31 92.937,70.536 C92.937,70.124 92.852,69.777 92.684,69.497 C92.515,69.215 92.262,68.972 91.925,68.766 C91.588,68.56 91.167,68.382 90.661,68.232 C90.156,68.083 89.572,67.933 88.91,67.783 C88.211,67.621 87.6,67.453 87.076,67.277 C86.551,67.103 86.111,66.884 85.755,66.622 C85.399,66.36 85.131,66.045 84.95,65.676 C84.769,65.309 84.678,64.856 84.678,64.319 C84.678,63.708 84.794,63.161 85.025,62.68 C85.255,62.2 85.58,61.8 85.998,61.481 C86.416,61.164 86.916,60.92 87.496,60.751 C88.077,60.583 88.716,60.499 89.416,60.499 C90.29,60.499 91.074,60.633 91.766,60.901 C92.459,61.17 93.086,61.547 93.648,62.034 L93.03,63.083" id="Fill-19"></path>
            <polyline id="Fill-20" points="102.599 73.888 102.599 60.593 103.891 60.593 103.891 72.727 111.587 72.727 111.587 73.888 102.599 73.888"></polyline>
            <polyline id="Fill-21" points="123.141 72.727 123.141 73.888 114.208 73.888 114.208 60.593 122.972 60.593 122.972 61.753 115.5 61.753 115.5 66.547 122.017 66.547 122.017 67.652 115.5 67.652 115.5 72.727 123.141 72.727"></polyline>
            <path d="M135.873,71.959 C134.638,73.308 133.221,73.981 131.622,73.981 C130.725,73.981 129.896,73.788 129.142,73.401 C128.386,73.014 127.73,72.502 127.175,71.865 C126.62,71.229 126.186,70.508 125.874,69.703 C125.562,68.897 125.405,68.071 125.405,67.221 C125.405,66.335 125.559,65.486 125.865,64.674 C126.171,63.863 126.595,63.148 127.139,62.531 C127.681,61.913 128.33,61.42 129.085,61.051 C129.84,60.683 130.661,60.499 131.548,60.499 C132.196,60.499 132.786,60.571 133.317,60.714 C133.848,60.858 134.321,61.058 134.741,61.314 C135.159,61.569 135.524,61.875 135.837,62.231 C136.147,62.587 136.41,62.977 136.622,63.401 L135.612,64.075 C135.174,63.251 134.605,62.647 133.907,62.259 C133.208,61.872 132.415,61.678 131.529,61.678 C130.792,61.678 130.127,61.835 129.534,62.147 C128.941,62.459 128.436,62.874 128.018,63.392 C127.6,63.91 127.278,64.503 127.054,65.171 C126.828,65.839 126.716,66.529 126.716,67.24 C126.716,67.989 126.844,68.701 127.101,69.375 C127.356,70.049 127.709,70.639 128.158,71.145 C128.607,71.65 129.135,72.052 129.741,72.353 C130.346,72.652 131.005,72.801 131.716,72.801 C132.478,72.801 133.202,72.624 133.889,72.268 C134.575,71.912 135.236,71.354 135.873,70.592 L135.873,68.363 L132.934,68.363 L132.934,67.353 L136.997,67.353 L136.997,73.888 L135.873,73.888 L135.873,71.959" id="Fill-22"></path>
            <path d="M145.03,62.128 L142.296,68.701 L147.689,68.701 L145.03,62.128 L145.03,62.128 Z M138.925,73.888 L144.486,60.593 L145.555,60.593 L151.115,73.888 L149.712,73.888 L147.988,69.731 L142.015,69.731 L140.311,73.888 L138.925,73.888 L138.925,73.888 Z" id="Fill-23"></path>
            <polyline id="Fill-24" points="153.605 73.888 153.605 60.593 154.898 60.593 154.898 72.727 162.594 72.727 162.594 73.888 153.605 73.888"></polyline>
            <path d="M169.204,67.147 C169.204,66.348 169.345,65.552 169.626,64.759 C169.906,63.966 170.314,63.258 170.852,62.633 C171.389,62.009 172.05,61.501 172.836,61.107 C173.623,60.714 174.515,60.518 175.515,60.518 C176.699,60.518 177.712,60.786 178.548,61.323 C179.385,61.86 180.009,62.559 180.421,63.42 L179.372,64.057 C179.159,63.62 178.904,63.251 178.604,62.952 C178.304,62.652 177.979,62.409 177.631,62.222 C177.28,62.034 176.919,61.9 176.544,61.819 C176.169,61.738 175.802,61.697 175.438,61.697 C174.641,61.697 173.935,61.86 173.323,62.184 C172.712,62.509 172.196,62.933 171.778,63.458 C171.36,63.981 171.045,64.572 170.833,65.227 C170.62,65.882 170.515,66.547 170.515,67.221 C170.515,67.958 170.642,68.664 170.898,69.337 C171.154,70.011 171.504,70.608 171.947,71.126 C172.39,71.644 172.914,72.056 173.52,72.361 C174.126,72.668 174.784,72.82 175.495,72.82 C175.87,72.82 176.255,72.773 176.646,72.68 C177.04,72.586 177.421,72.437 177.789,72.23 C178.157,72.024 178.497,71.769 178.81,71.463 C179.122,71.157 179.385,70.786 179.597,70.348 L180.682,70.91 C180.471,71.41 180.171,71.85 179.784,72.23 C179.396,72.611 178.967,72.933 178.491,73.195 C178.018,73.457 177.514,73.657 176.983,73.794 C176.453,73.931 175.933,74 175.421,74 C174.51,74 173.674,73.8 172.912,73.401 C172.149,73.001 171.494,72.481 170.946,71.837 C170.395,71.194 169.968,70.464 169.662,69.647 C169.356,68.829 169.204,67.996 169.204,67.147" id="Fill-25"></path>
            <polyline id="Fill-26" points="192.461 72.727 192.461 73.888 183.529 73.888 183.529 60.593 192.293 60.593 192.293 61.753 184.821 61.753 184.821 66.547 191.338 66.547 191.338 67.652 184.821 67.652 184.821 72.727 192.461 72.727"></polyline>
            <polyline id="Fill-27" points="196.862 63.026 196.862 73.888 195.569 73.888 195.569 60.593 196.581 60.593 205.382 71.66 205.382 60.611 206.674 60.611 206.674 73.888 205.55 73.888 196.862 63.026"></polyline>
            <polyline id="Fill-28" points="220.063 61.753 215.325 61.753 215.325 73.888 214.015 73.888 214.015 61.753 209.277 61.753 209.277 60.593 220.063 60.593 220.063 61.753"></polyline>
            <path d="M223.957,67.82 L228.319,67.82 C228.707,67.82 229.06,67.737 229.378,67.568 C229.696,67.399 229.968,67.171 230.192,66.884 C230.418,66.597 230.593,66.272 230.717,65.911 C230.842,65.549 230.903,65.168 230.903,64.769 C230.903,64.369 230.832,63.985 230.688,63.617 C230.545,63.249 230.352,62.927 230.108,62.652 C229.864,62.378 229.578,62.159 229.246,61.997 C228.916,61.835 228.57,61.753 228.207,61.753 L223.957,61.753 L223.957,67.82 L223.957,67.82 Z M222.665,73.888 L222.665,60.593 L228.263,60.593 C228.838,60.593 229.369,60.714 229.855,60.958 C230.342,61.201 230.761,61.52 231.11,61.913 C231.46,62.306 231.73,62.752 231.925,63.251 C232.118,63.751 232.215,64.257 232.215,64.769 C232.215,65.255 232.144,65.721 231.999,66.164 C231.855,66.607 231.653,67.006 231.392,67.362 C231.128,67.718 230.817,68.017 230.454,68.261 C230.093,68.504 229.688,68.669 229.237,68.757 L232.515,73.888 L231.035,73.888 L227.89,68.982 L223.957,68.982 L223.957,73.888 L222.665,73.888 L222.665,73.888 Z" id="Fill-29"></path>
            <polyline id="Fill-30" points="244.518 72.727 244.518 73.888 235.585 73.888 235.585 60.593 244.349 60.593 244.349 61.753 236.877 61.753 236.877 66.547 243.394 66.547 243.394 67.652 236.877 67.652 236.877 72.727 244.518 72.727"></polyline>
        </g>
    </g>
</svg>