<?xml version="1.0" encoding="UTF-8" standalone="no"?>
<svg width="16px" height="16px" viewBox="0 0 16 16" version="1.1" xmlns="http://www.w3.org/2000/svg" xmlns:xlink="http://www.w3.org/1999/xlink">
    <!-- Generator: Sketch 39.1 (31720) - http://www.bohemiancoding.com/sketch -->
    <title>Imported Layers</title>
    <desc>Created with Sketch.</desc>
    <defs></defs>
    <g id="Page-1" stroke="none" stroke-width="1" fill="none" fill-rule="evenodd">
        <g id="Letter-Copy" transform="translate(-298.000000, -388.000000)" fill="#FFFFFF">
            <path d="M298.861111,388 C298.384917,388 298,388.384917 298,388.861111 C298,396.945222 304.554778,403.5 312.638889,403.5 C313.115083,403.5 313.5,403.115083 313.5,402.638889 L313.5,399.625 C313.5,399.149667 313.115083,398.76475 312.638889,398.76475 C311.564222,398.76475 310.530889,398.591667 309.563,398.274778 C309.476889,398.247222 309.386472,398.233444 309.296917,398.233444 C309.077333,398.233444 308.856889,398.317833 308.688972,398.48575 L306.793667,400.382778 C304.355,399.142778 302.361528,397.149306 301.119806,394.7115 L303.01425,392.811028 C303.251056,392.575083 303.320806,392.234944 303.225222,391.937 C302.908333,390.96825 302.73525,389.934917 302.73525,388.861111 C302.73525,388.384917 302.350333,388 301.875,388 L298.861111,388 Z" id="Imported-Layers"></path>
        </g>
    </g>
</svg>