<?xml version="1.0" encoding="UTF-8" standalone="no"?>
<svg width="46px" height="48px" viewBox="0 0 46 48" version="1.1" xmlns="http://www.w3.org/2000/svg" xmlns:xlink="http://www.w3.org/1999/xlink">
    <!-- Generator: Sketch 39.1 (31720) - http://www.bohemiancoding.com/sketch -->
    <title>Group</title>
    <desc>Created with Sketch.</desc>
    <defs></defs>
    <g id="Mobile" stroke="none" stroke-width="1" fill="none" fill-rule="evenodd">
        <g id="7-Contact-Us-" transform="translate(-165.000000, -1177.000000)">
            <g id="Group" transform="translate(165.000000, 1177.000000)">
                <path d="M23.9230769,9 L11,9 L11,39 L18.3846154,39 L18.3846154,29 L23.9230769,29 C30.0338462,29 35,24.5166667 35,19 C35,13.4833333 30.0338462,9 23.9230769,9 L23.9230769,9 Z M24.2923077,22.3333333 L18.3846154,22.3333333 L18.3846154,15.6666667 L24.2923077,15.6666667 C26.3230769,15.6666667 27.9846154,17.1666667 27.9846154,19 C27.9846154,20.8333333 26.3230769,22.3333333 24.2923077,22.3333333 L24.2923077,22.3333333 Z" id="Fill-239" fill="#4A4A4A"></path>
                <path d="M0,24 C0,37.2 10.35,48 23,48 C27.4431933,48 31.6026357,46.6676046 35.1295004,44.3668071 C41.643801,40.1171157 46,32.5636244 46,24 C46,10.8 35.65,0 23,0 C10.35,0 0,10.8 0,24 Z M4.6,24 C4.6,13.44 12.88,4.8 23,4.8 C27.14,4.8 31.05,6.24 34.27,8.88 L8.51,35.76 C5.98,32.4 4.6,28.32 4.6,24 L4.6,24 Z M23,43.2 C18.86,43.2 14.95,41.76 11.73,39.12 L37.49,12.24 C40.02,15.6 41.4,19.68 41.4,24 C41.4,34.56 33.12,43.2 23,43.2 L23,43.2 Z" id="Fill-146" fill-opacity="0.920000017" fill="#A44F52"></path>
            </g>
        </g>
    </g>
</svg>