<?xml version="1.0" encoding="UTF-8" standalone="no"?>
<svg width="98px" height="108px" viewBox="0 0 98 108" version="1.1" xmlns="http://www.w3.org/2000/svg" xmlns:xlink="http://www.w3.org/1999/xlink">
    <!-- Generator: Sketch 39.1 (31720) - http://www.bohemiancoding.com/sketch -->
    <title>Group</title>
    <desc>Created with Sketch.</desc>
    <defs></defs>
    <g id="Desktop-" stroke="none" stroke-width="1" fill="none" fill-rule="evenodd">
        <g id="Students" transform="translate(-292.000000, -1736.000000)">
            <g id="Group-3" transform="translate(285.000000, 1736.000000)">
                <g id="Group" transform="translate(7.000000, 0.000000)">
                    <g id="Group-5">
                        <rect id="Rectangle-7" fill="#5B5B5B" x="0" y="0" width="98" height="108" rx="4"></rect>
                        <path d="M49.8159521,51.435 C48.0737543,51.435 46.6717068,52.9785 46.6717068,54.9 C46.6717068,56.8215 48.0737543,58.365 49.8159521,58.365 C51.559579,58.365 52.9601973,56.8215 52.9601973,54.9 C52.9601973,52.9785 51.559579,51.435 49.8159521,51.435 L49.8159521,51.435 Z M49.8159521,23.4 C34.0375576,23.4 21.2333333,37.512 21.2333333,54.9 C21.2333333,72.288 34.0375576,86.4 49.8159521,86.4 C65.5943465,86.4 78.4,72.288 78.4,54.9 C78.4,37.512 65.5943465,23.4 49.8159521,23.4 L49.8159521,23.4 Z M56.0758586,61.7985 L32.6655233,73.8 L43.5560456,48.0015 L66.9663808,36 L56.0758586,61.7985 L56.0758586,61.7985 Z" id="Fill-153" fill="#FFFFFF"></path>
                    </g>
                </g>
            </g>
        </g>
    </g>
</svg>