<?xml version="1.0" encoding="UTF-8" standalone="no"?>
<svg width="36px" height="40px" viewBox="0 0 36 40" version="1.1" xmlns="http://www.w3.org/2000/svg" xmlns:xlink="http://www.w3.org/1999/xlink">
    <!-- Generator: Sketch 39.1 (31720) - http://www.bohemiancoding.com/sketch -->
    <title>Fill 18</title>
    <desc>Created with Sketch.</desc>
    <defs></defs>
    <g id="Mobile" stroke="none" stroke-width="1" fill="none" fill-rule="evenodd">
        <g id="2-About" transform="translate(-170.000000, -1804.000000)" fill="#5B5B5B">
            <path d="M201.927,1807.99 L193.586,1807.99 C192.748,1805.676 190.553,1804 187.958,1804 C185.364,1804 183.169,1805.676 182.331,1807.99 L173.99,1807.99 C171.795,1807.99 170,1809.786 170,1811.981 L170,1839.918 C170,1842.113 171.795,1843.909 173.99,1843.909 L201.927,1843.909 C204.122,1843.909 205.918,1842.113 205.918,1839.918 L205.918,1811.981 C205.918,1809.786 204.122,1807.99 201.927,1807.99 L201.927,1807.99 Z M187.958,1807.99 C189.056,1807.99 189.954,1808.888 189.954,1809.986 C189.954,1811.084 189.056,1811.981 187.958,1811.981 C186.861,1811.981 185.963,1811.084 185.963,1809.986 C185.963,1808.888 186.861,1807.99 187.958,1807.99 L187.958,1807.99 Z M187.958,1815.972 C191.271,1815.972 193.945,1818.646 193.945,1821.959 C193.945,1825.271 191.271,1827.945 187.958,1827.945 C184.646,1827.945 181.972,1825.271 181.972,1821.959 C181.972,1818.646 184.646,1815.972 187.958,1815.972 L187.958,1815.972 Z M199.931,1839.918 L175.986,1839.918 L175.986,1837.124 C175.986,1833.133 183.968,1830.938 187.958,1830.938 C191.949,1830.938 199.931,1833.133 199.931,1837.124 L199.931,1839.918 L199.931,1839.918 Z" id="Fill-18"></path>
        </g>
    </g>
</svg>