<?xml version="1.0" encoding="UTF-8" standalone="no"?>
<svg width="293px" height="60px" viewBox="0 0 293 60" version="1.1" xmlns="http://www.w3.org/2000/svg" xmlns:xlink="http://www.w3.org/1999/xlink">
    <!-- Generator: Sketch 39.1 (31720) - http://www.bohemiancoding.com/sketch -->
    <title>Group</title>
    <desc>Created with Sketch.</desc>
    <defs></defs>
    <g id="Page-1" stroke="none" stroke-width="1" fill="none" fill-rule="evenodd">
        <g id="Letter" transform="translate(-138.000000, -705.000000)" fill="#4A4A4A">
            <g id="Group" transform="translate(138.000000, 705.000000)">
                <path d="M44.4442898,7.55431817 L32.8331199,7.55431817 C31.6665739,4.33309204 28.6110028,2 25,2 C21.3889972,2 18.3334261,4.33309204 17.1668801,7.55431817 L5.55571023,7.55431817 C2.50013921,7.55431817 0,10.0544574 0,13.1100284 L0,52 C0,55.055571 2.50013921,57.5557102 5.55571023,57.5557102 L44.4442898,57.5557102 C47.4998608,57.5557102 50,55.055571 50,52 L50,13.1100284 C50,10.0544574 47.4998608,7.55431817 44.4442898,7.55431817 L44.4442898,7.55431817 Z M25,7.55431817 C26.5270895,7.55431817 27.7771591,8.80438777 27.7771591,10.3328693 C27.7771591,11.8613509 26.5270895,13.1100284 25,13.1100284 C23.4715185,13.1100284 22.2214489,11.8613509 22.2214489,10.3328693 C22.2214489,8.80438777 23.4715185,7.55431817 25,7.55431817 L25,7.55431817 Z M11.1114205,40.8885795 L30.5557102,40.8885795 L30.5557102,46.4442898 L11.1114205,46.4442898 L11.1114205,40.8885795 Z M11.1114205,29.7771591 L38.8899716,29.7771591 L38.8899716,35.3328693 L11.1114205,35.3328693 L11.1114205,29.7771591 Z M11.1114205,18.6657386 L38.8899716,18.6657386 L38.8899716,24.2214489 L11.1114205,24.2214489 L11.1114205,18.6657386 Z" id="Fill-17"></path>
                <g id="Group-2" transform="translate(107.000000, 4.000000)">
                    <path d="M60.8333333,45.8823529 L60.8333333,42.8235294 C64.1791667,42.8235294 66.88625,40.0705882 66.88625,36.7058824 L66.9166667,6.11764706 C66.9166667,2.75294118 64.1791667,0 60.8333333,0 L12.1666667,0 C8.82083333,0 6.08333333,2.75294118 6.08333333,6.11764706 L6.08333333,36.7058824 C6.08333333,40.0705882 8.82083333,42.8235294 12.1666667,42.8235294 L12.1666667,45.8823529 L0,45.8823529 L0,52 L73,52 L73,45.8823529 L60.8333333,45.8823529 L60.8333333,45.8823529 Z M12.1666667,6.11764706 L60.8333333,6.11764706 L60.8333333,36.7058824 L12.1666667,36.7058824 L12.1666667,6.11764706 Z" id="Fill-288"></path>
                    <polygon id="Fill-157" points="26.8932 21.1068732 24.82 23.1722254 32.9814 31.3611268 50.50067 13.783662 48.44207 11.7183099 32.9814 27.2157746"></polygon>
                </g>
                <path d="M262.657812,0 C246.270312,0 233,13.3 233,29.6875 C233,46.075 246.270312,59.375 262.657812,59.375 C279.075,59.375 292.375,46.075 292.375,29.6875 C292.375,13.3 279.075,0 262.657812,0 L262.657812,0 Z M262.6875,53.4375 C249.565625,53.4375 238.9375,42.809375 238.9375,29.6875 C238.9375,16.565625 249.565625,5.9375 262.6875,5.9375 C275.809375,5.9375 286.4375,16.565625 286.4375,29.6875 C286.4375,42.809375 275.809375,53.4375 262.6875,53.4375 L262.6875,53.4375 Z M264.171875,14.84375 L259.71875,14.84375 L259.71875,32.65625 L275.304688,42.0078125 L277.53125,38.35625 L264.171875,30.4296875 L264.171875,14.84375 Z" id="Shape"></path>
                <polygon id="Shape" points="83.0355778 30 69 30 69 34 83.0355778 34 83.0355778 40 91.0244444 32 83.0355778 24"></polygon>
                <polygon id="Shape-Copy" points="208.035578 30 194 30 194 34 208.035578 34 208.035578 40 216.024444 32 208.035578 24"></polygon>
            </g>
        </g>
    </g>
</svg>