<?xml version="1.0" encoding="UTF-8" standalone="no"?>
<svg width="72px" height="72px" viewBox="0 0 72 72" version="1.1" xmlns="http://www.w3.org/2000/svg" xmlns:xlink="http://www.w3.org/1999/xlink">
    <!-- Generator: Sketch 39.1 (31720) - http://www.bohemiancoding.com/sketch -->
    <title>Fill 101</title>
    <desc>Created with Sketch.</desc>
    <defs></defs>
    <g id="Mobile" stroke="none" stroke-width="1" fill="none" fill-rule="evenodd">
        <g id="8.8-Book---verified" transform="translate(-151.000000, -341.000000)" fill="#414141">
            <path d="M186.964,341 C167.092,341 151,357.128 151,377 C151,396.872 167.092,413 186.964,413 C206.872,413 223,396.872 223,377 C223,357.128 206.872,341 186.964,341 L186.964,341 Z M187,405.8 C171.088,405.8 158.2,392.912 158.2,377 C158.2,361.088 171.088,348.2 187,348.2 C202.912,348.2 215.8,361.088 215.8,377 C215.8,392.912 202.912,405.8 187,405.8 L187,405.8 Z M188.8,359 L183.4,359 L183.4,380.6 L202.3,391.94 L205,387.512 L188.8,377.9 L188.8,359" id="Fill-101"></path>
        </g>
    </g>
</svg>