<?xml version="1.0" encoding="UTF-8" standalone="no"?>
<svg width="74px" height="51px" viewBox="0 0 74 51" version="1.1" xmlns="http://www.w3.org/2000/svg" xmlns:xlink="http://www.w3.org/1999/xlink">
    <!-- Generator: Sketch 39.1 (31720) - http://www.bohemiancoding.com/sketch -->
    <title>Group 3</title>
    <desc>Created with Sketch.</desc>
    <defs></defs>
    <g id="Page-1" stroke="none" stroke-width="1" fill="none" fill-rule="evenodd">
        <g id="Letter-Copy" transform="translate(-164.000000, -10.000000)">
            <g id="Group-3" transform="translate(164.000000, 10.000000)">
                <path d="M4.725,47.5981237 L4.725,35.2514577 L0,35.2514577 L0,22.2040816 C0,18.7148688 2.835,15.8600583 6.3,15.8600583 L15.75,15.8600583 C19.215,15.8600583 22.05,18.7148688 22.05,22.2040816 L22.05,35.2514577 L17.325,35.2514577 L17.325,50.763948 L4.725,50.763948 L4.725,47.5981237 Z M59.3,47.9654857 L59.3,44.4081633 L68.75,44.4081633 L60.749,20.2057143 C59.867,17.6046647 57.473,15.8600583 54.764,15.8600583 L54.386,15.8600583 C51.677,15.8600583 49.2515,17.6046647 48.401,20.2057143 L40.4,44.4081633 L49.85,44.4081633 L49.85,50.7639319 L59.3,50.7639319 L59.3,47.9654857 Z M10.5,12.6880466 C13.9965,12.6880466 16.8,9.86495627 16.8,6.34402332 C16.8,2.82309038 13.9965,0 10.5,0 C7.0035,0 4.2,2.82309038 4.2,6.34402332 C4.2,9.86495627 7.0035,12.6880466 10.5,12.6880466 L10.5,12.6880466 Z M54.575,12.6880466 C58.0715,12.6880466 60.875,9.86495627 60.875,6.34402332 C60.875,2.82309038 58.0715,0 54.575,0 C51.0785,0 48.275,2.82309038 48.275,6.34402332 C48.275,9.86495627 51.0785,12.6880466 54.575,12.6880466 L54.575,12.6880466 Z" id="Shape" fill="#4A4A4A"></path>
                <rect id="Rectangle-10" fill="#FFFFFF" x="33.05" y="21.1467444" width="40.95" height="20.0894072"></rect>
                <path d="M46.8909091,32.6928669 C49.2534091,32.6928669 51.1863636,30.8086919 51.1863636,28.5058115 C51.1863636,26.202931 49.2534091,24.3187561 46.8909091,24.3187561 C44.5284091,24.3187561 42.5954545,26.202931 42.5954545,28.5058115 C42.5954545,30.8086919 44.5284091,32.6928669 46.8909091,32.6928669 L46.8909091,32.6928669 Z M64.0727273,24.3187561 L52.6181818,24.3187561 L52.6181818,34.088552 L41.1636364,34.088552 L41.1636364,24.3187561 L38.3,24.3187561 L38.3,38.2756074 L69.8,38.2756074 L69.8,29.9014966 C69.8,26.8170325 67.2370455,24.3187561 64.0727273,24.3187561 L64.0727273,24.3187561 Z" id="Shape" fill="#4A4A4A"></path>
            </g>
        </g>
    </g>
</svg>