<?xml version="1.0" encoding="UTF-8" standalone="no"?>
<svg width="46px" height="32px" viewBox="0 0 46 32" version="1.1" xmlns="http://www.w3.org/2000/svg" xmlns:xlink="http://www.w3.org/1999/xlink">
    <!-- Generator: Sketch 39.1 (31720) - http://www.bohemiancoding.com/sketch -->
    <title>Fill 8</title>
    <desc>Created with Sketch.</desc>
    <defs></defs>
    <g id="Mobile" stroke="none" stroke-width="1" fill="none" fill-rule="evenodd">
        <g id="2-About" transform="translate(-165.000000, -3163.000000)" fill="#5B5B5B">
            <path d="M198.142775,3179 C201.297431,3179 203.834896,3176.43963 203.834896,3173.28612 C203.834896,3170.13147 201.297431,3167.5711 198.142775,3167.5711 C194.989265,3167.5711 192.428899,3170.13147 192.428899,3173.28612 C192.428899,3176.43963 194.989265,3179 198.142775,3179 L198.142775,3179 Z M181,3176.71445 C184.794747,3176.71445 187.834896,3173.6514 187.834896,3169.8578 C187.834896,3166.06305 184.794747,3163 181,3163 C177.205253,3163 174.143348,3166.06305 174.143348,3169.8578 C174.143348,3173.6514 177.205253,3176.71445 181,3176.71445 L181,3176.71445 Z M198.142775,3183.57225 C193.959851,3183.57225 185.571101,3185.67459 185.571101,3189.85751 L185.571101,3195 L210.714449,3195 L210.714449,3189.85751 C210.714449,3185.67459 202.3257,3183.57225 198.142775,3183.57225 L198.142775,3183.57225 Z M181,3181.28555 C175.6743,3181.28555 165,3183.96042 165,3189.28612 L165,3195 L181,3195 L181,3189.85751 C181,3187.91433 181.754598,3184.50891 186.417305,3181.92564 C184.428326,3181.51456 182.508051,3181.28555 181,3181.28555 L181,3181.28555 Z" id="Fill-8"></path>
        </g>
    </g>
</svg>