<?xml version="1.0" encoding="UTF-8" standalone="no"?>
<svg width="98px" height="104px" viewBox="0 0 98 104" version="1.1" xmlns="http://www.w3.org/2000/svg" xmlns:xlink="http://www.w3.org/1999/xlink">
    <!-- Generator: Sketch 39.1 (31720) - http://www.bohemiancoding.com/sketch -->
    <title>Group 10</title>
    <desc>Created with Sketch.</desc>
    <defs></defs>
    <g id="Desktop-" stroke="none" stroke-width="1" fill="none" fill-rule="evenodd">
        <g id="Students" transform="translate(-292.000000, -2788.000000)">
            <g id="Group-7" transform="translate(282.000000, 2788.000000)">
                <g id="Group-10" transform="translate(10.000000, 0.000000)">
                    <rect id="Rectangle-8-Copy-2" fill="#5B5B5B" x="0" y="0" width="98" height="104" rx="4"></rect>
                    <path d="M42.0223922,62.3323817 C35.0840438,62.3323817 21.2333333,66.0774118 21.2333333,73.511576 L21.2333333,79.1011732 L62.811451,79.1011732 L62.811451,73.511576 C62.811451,66.0774118 48.9607406,62.3323817 42.0223922,62.3323817 L42.0223922,62.3323817 Z M62.1877793,35.3905233 L57.8220769,40.1137329 C60.0049281,43.4115952 60.0049281,47.6876371 57.8220769,50.9854994 L62.1877793,55.708709 C67.4370166,50.0632159 67.4370166,41.5390802 62.1877793,35.3905233 L62.1877793,35.3905233 Z M70.7892524,26 L66.5534816,30.5555217 C73.7516933,38.9958134 73.7516933,51.684199 66.5534816,60.5716586 L70.7892524,65.1271803 C80.9239186,54.2554138 80.9499049,37.3189343 70.7892524,26 L70.7892524,26 Z M42.0223922,56.7427845 C47.7631323,56.7427845 52.4169216,51.7376887 52.4169216,45.5635901 C52.4169216,39.3894916 47.7631323,34.3843958 42.0223922,34.3843958 C36.2816521,34.3843958 31.6278628,39.3894916 31.6278628,45.5635901 C31.6278628,51.7376887 36.2816521,56.7427845 42.0223922,56.7427845 Z" id="Shape" fill="#FFFFFF"></path>
                </g>
            </g>
        </g>
    </g>
</svg>