<?xml version="1.0" encoding="utf-8"?>
<!-- Generator: Adobe Illustrator 20.0.0, SVG Export Plug-In . SVG Version: 6.00 Build 0)  -->
<svg version="1.1" id="Layer_1" xmlns="http://www.w3.org/2000/svg" xmlns:xlink="http://www.w3.org/1999/xlink" x="0px" y="0px"
	 viewBox="0 0 115.3 25.2" style="enable-background:new 0 0 115.3 25.2;" xml:space="preserve">
<style type="text/css">
	.st0{fill:#FFFFFF;}
	.st1{clip-path:url(#SVGID_2_);fill:#FFFFFF;}
</style>
<g>
	<g>
		<path class="st0" d="M39.6,2.8H45l5,13.6H50l4.9-13.6h5.3v19.1h-3.4V6.5h-0.1L51,21.9h-2.4L42.9,6.5h-0.1v15.4h-3.2V2.8z"/>
		<path class="st0" d="M63.8,2.8h12.7v3h-9.3v4.9H76v2.9h-8.8v5.4H77v3H63.8V2.8z"/>
		<path class="st0" d="M79.6,2.8h4.5L93,17.1h0.1V2.8h3.4v19.1h-4.3L83.1,7.1H83v14.8h-3.4V2.8z"/>
		<path class="st0" d="M115.3,14.9c0,1.2-0.2,2.2-0.6,3.1c-0.4,0.9-0.9,1.7-1.6,2.4c-0.7,0.6-1.5,1.1-2.4,1.5
			c-0.9,0.4-2,0.5-3.1,0.5s-2.1-0.2-3.1-0.5c-0.9-0.4-1.8-0.9-2.4-1.5c-0.7-0.6-1.2-1.4-1.6-2.4c-0.4-0.9-0.6-2-0.6-3.1V2.8h3.4v12
			c0,0.6,0.1,1.1,0.2,1.7s0.4,1,0.7,1.5c0.3,0.4,0.8,0.8,1.3,1.1c0.5,0.3,1.2,0.4,2,0.4c0.8,0,1.5-0.1,2-0.4c0.5-0.3,1-0.6,1.3-1.1
			c0.3-0.4,0.6-0.9,0.7-1.5c0.1-0.5,0.2-1.1,0.2-1.7v-12h3.4V14.9z"/>
	</g>
	<g>
		<defs>
			<path id="SVGID_1_" d="M1.4,20.3h24.3c0.7,0,1.4,1.1,1.4,2.4s-0.6,2.4-1.4,2.4H1.4c-0.7,0-1.4-1.1-1.4-2.4S0.6,20.3,1.4,20.3z
				 M25.7,4.8H1.4C0.6,4.8,0,3.8,0,2.4C0,1.1,0.6,0,1.4,0h24.3C26.4,0,27,1.1,27,2.4C27,3.8,26.4,4.8,25.7,4.8z M1.4,15
				C0.6,15,0,13.9,0,12.6c0-1.3,0.6-2.4,1.4-2.4h24.3c0.7,0,1.4,1.1,1.4,2.4c0,1.3-0.6,2.4-1.4,2.4H1.4z"/>
		</defs>
		<clipPath id="SVGID_2_">
			<use xlink:href="#SVGID_1_"  style="overflow:visible;"/>
		</clipPath>
		<rect x="-5" y="-5" class="st1" width="37" height="35.2"/>
	</g>
</g>
</svg>
