<?xml version="1.0" encoding="UTF-8" standalone="no"?>
<svg width="24px" height="40px" viewBox="0 0 24 40" version="1.1" xmlns="http://www.w3.org/2000/svg" xmlns:xlink="http://www.w3.org/1999/xlink">
    <!-- Generator: Sketch 39.1 (31720) - http://www.bohemiancoding.com/sketch -->
    <title>Group 2</title>
    <desc>Created with Sketch.</desc>
    <defs></defs>
    <g id="Mobile" stroke="none" stroke-width="1" fill="none" fill-rule="evenodd">
        <g id="7-Contact-Us-" transform="translate(-176.000000, -1359.000000)">
            <g id="Group-2" transform="translate(176.000000, 1359.000000)">
                <path d="M0,11.9769 L8,19.9615 L0,27.9461 L0,39.923 L24,39.923 L24,34.1253577 L24,27.9660615 L16,19.9615 L24,11.9968615 L24,0 L0,0 L0,11.9769 Z M20,28.944175 L20,35.9307 L4,35.9307 L4,28.944175 L12,20.959575 L20,28.944175 L20,28.944175 Z M12,18.963425 L4,10.978825 L4,3.9923 L20,3.9923 L20,10.978825 L12,18.963425 L12,18.963425 Z" id="Shape" fill="#4A4A4A"></path>
                <polygon id="Path-4" fill="#A44F52" points="11.9152246 20 3 28.8210049 3.02769602 36.3999996 20.6655133 36.283154 20.7299995 28.9286038"></polygon>
            </g>
        </g>
    </g>
</svg>