<?xml version="1.0" encoding="UTF-8" standalone="no"?>
<svg width="39px" height="46px" viewBox="0 0 39 46" version="1.1" xmlns="http://www.w3.org/2000/svg" xmlns:xlink="http://www.w3.org/1999/xlink">
    <!-- Generator: Sketch 39.1 (31720) - http://www.bohemiancoding.com/sketch -->
    <title>Fill 165 Copy 2</title>
    <desc>Created with Sketch.</desc>
    <defs></defs>
    <g id="Mobile" stroke="none" stroke-width="1" fill="none" fill-rule="evenodd">
        <g id="3-Services-" transform="translate(-115.000000, -2227.000000)" fill="#4A4A4A">
            <g id="Group-22" transform="translate(115.000000, 2217.000000)">
                <path d="M3.9,55.981975 L35.1,55.981975 L35.1,52.081975 L3.9,52.081975 L3.9,55.981975 Z M3.9,13.9 L35.1,13.9 L35.1,10 L3.9,10 L3.9,13.9 Z M35.1,16.981975 L3.9,16.981975 C1.755,16.981975 0,18.736975 0,20.881975 L0,44.281975 C0,46.426975 1.755,48.181975 3.9,48.181975 L35.1,48.181975 C37.245,48.181975 39,46.426975 39,44.281975 L39,20.881975 C39,18.736975 37.245,16.981975 35.1,16.981975 L35.1,16.981975 Z M19.5,22.344475 C21.918,22.344475 23.8875,24.313975 23.8875,26.731975 C23.8875,29.149975 21.918,31.119475 19.5,31.119475 C17.082,31.119475 15.1125,29.149975 15.1125,26.731975 C15.1125,24.313975 17.082,22.344475 19.5,22.344475 L19.5,22.344475 Z M29.25,42.331975 L9.75,42.331975 L9.75,39.406975 C9.75,36.150475 16.2435,34.531975 19.5,34.531975 C22.7565,34.531975 29.25,36.150475 29.25,39.406975 L29.25,42.331975 L29.25,42.331975 Z" id="Fill-165-Copy-2"></path>
            </g>
        </g>
    </g>
</svg>