<?xml version="1.0" encoding="UTF-8" standalone="no"?>
<svg width="19px" height="28px" viewBox="0 0 19 28" version="1.1" xmlns="http://www.w3.org/2000/svg" xmlns:xlink="http://www.w3.org/1999/xlink">
    <!-- Generator: Sketch 39.1 (31720) - http://www.bohemiancoding.com/sketch -->
    <title>Fill 222</title>
    <desc>Created with Sketch.</desc>
    <defs></defs>
    <g id="Page-1" stroke="none" stroke-width="1" fill="none" fill-rule="evenodd">
        <g id="Letter-Copy" transform="translate(-350.000000, -382.000000)" fill="#FFFFFF">
            <path d="M359.5,382 C354.247857,382 350,386.247857 350,391.5 C350,398.625 359.5,409.142857 359.5,409.142857 C359.5,409.142857 369,398.625 369,391.5 C369,386.247857 364.752143,382 359.5,382 L359.5,382 Z M359.5,394.892857 C357.627143,394.892857 356.107143,393.372857 356.107143,391.5 C356.107143,389.627143 357.627143,388.107143 359.5,388.107143 C361.372857,388.107143 362.892857,389.627143 362.892857,391.5 C362.892857,393.372857 361.372857,394.892857 359.5,394.892857 L359.5,394.892857 Z" id="Fill-222"></path>
        </g>
    </g>
</svg>