<?xml version="1.0" encoding="UTF-8" standalone="no"?>
<svg width="40px" height="40px" viewBox="0 0 40 40" version="1.1" xmlns="http://www.w3.org/2000/svg" xmlns:xlink="http://www.w3.org/1999/xlink">
    <!-- Generator: Sketch 39.1 (31720) - http://www.bohemiancoding.com/sketch -->
    <title>Fill 9</title>
    <desc>Created with Sketch.</desc>
    <defs></defs>
    <g id="Mobile" stroke="none" stroke-width="1" fill="none" fill-rule="evenodd">
        <g id="2-About" transform="translate(-168.000000, -723.000000)" fill="#5B5B5B">
            <path d="M187.959499,723 C176.942328,723 168,731.943 168,742.961 C168,753.98 176.942328,762.923 187.959499,762.923 C198.977671,762.923 207.919998,753.98 207.919998,742.961 C207.919998,731.943 198.977671,723 187.959499,723 L187.959499,723 Z M187.959499,728.988 C191.27325,728.988 193.948049,731.663 193.948049,734.977 C193.948049,738.29 191.27325,740.965 187.959499,740.965 C184.646748,740.965 181.971949,738.29 181.971949,734.977 C181.971949,731.663 184.646748,728.988 187.959499,728.988 L187.959499,728.988 Z M187.959499,757.334 C182.969874,757.334 178.558206,754.778 175.9834,750.906 C176.043395,746.933 183.967799,744.758 187.959499,744.758 C191.9322,744.758 199.875603,746.933 199.935599,750.906 C197.360792,754.778 192.950124,757.334 187.959499,757.334 L187.959499,757.334 Z" id="Fill-9"></path>
        </g>
    </g>
</svg>