<?xml version="1.0" encoding="UTF-8" standalone="no"?>
<svg width="30px" height="24px" viewBox="0 0 30 24" version="1.1" xmlns="http://www.w3.org/2000/svg" xmlns:xlink="http://www.w3.org/1999/xlink">
    <!-- Generator: Sketch 39.1 (31720) - http://www.bohemiancoding.com/sketch -->
    <title>Shape</title>
    <desc>Created with Sketch.</desc>
    <defs></defs>
    <g id="Mobile" stroke="none" stroke-width="1" fill="none" fill-rule="evenodd">
        <g id="0.0-SandwichMenu" transform="translate(-44.000000, -281.000000)" fill="#FFFFFF">
            <g id="Group-3" transform="translate(44.000000, 281.000000)">
                <path d="M26.7098351,2.96775945 L14.8387973,2.96775945 L11.8710378,-1.13686838e-13 L2.96775945,-1.13686838e-13 C1.33549175,-1.13686838e-13 0.0148387973,1.33549175 0.0148387973,2.96775945 L0,20.7743162 C0,22.4065839 1.33549175,23.7420756 2.96775945,23.7420756 L26.7098351,23.7420756 C28.3421028,23.7420756 29.6775945,22.4065839 29.6775945,20.7743162 L29.6775945,5.9355189 C29.6775945,4.3032512 28.3421028,2.96775945 26.7098351,2.96775945 L26.7098351,2.96775945 Z M19.2904364,7.41939863 C20.9227041,7.41939863 22.2581959,8.75489038 22.2581959,10.3871581 C22.2581959,12.0194258 20.9227041,13.3549175 19.2904364,13.3549175 C17.6581687,13.3549175 16.322677,12.0194258 16.322677,10.3871581 C16.322677,8.75489038 17.6581687,7.41939863 19.2904364,7.41939863 L19.2904364,7.41939863 Z M25.2259553,19.2904364 L13.3549175,19.2904364 L13.3549175,17.8065567 C13.3549175,15.8329967 17.3168764,14.8387973 19.2904364,14.8387973 C21.2639965,14.8387973 25.2259553,15.8329967 25.2259553,17.8065567 L25.2259553,19.2904364 L25.2259553,19.2904364 Z" id="Shape"></path>
            </g>
        </g>
    </g>
</svg>