<?xml version="1.0" encoding="UTF-8" standalone="no"?>
<svg width="40px" height="40px" viewBox="0 0 40 40" version="1.1" xmlns="http://www.w3.org/2000/svg" xmlns:xlink="http://www.w3.org/1999/xlink">
    <!-- Generator: Sketch 39.1 (31720) - http://www.bohemiancoding.com/sketch -->
    <title>Fill 138</title>
    <desc>Created with Sketch.</desc>
    <defs></defs>
    <g id="Mobile" stroke="none" stroke-width="1" fill="none" fill-rule="evenodd">
        <g id="6-Donate" transform="translate(-168.000000, -165.000000)" fill="#4A4A4A">
            <path d="M188,165 C176.96,165 168,173.96 168,185 C168,196.04 176.96,205 188,205 C199.04,205 208,196.04 208,185 C208,173.96 199.04,165 188,165 L188,165 Z M186,195 L190,195 L190,199 L186,199 L186,195 Z M194.14,183.5 L192.34,185.34 C190.9,186.8 190,188 190,191 L186,191 L186,190 C186,187.8 186.9,185.8 188.34,184.34 L190.82,181.82 C191.56,181.1 192,180.1 192,179 C192,176.8 190.2,175 188,175 C185.8,175 184,176.8 184,179 L180,179 C180,174.58 183.58,171 188,171 C192.42,171 196,174.58 196,179 C196,180.76 195.28,182.36 194.14,183.5 L194.14,183.5 Z" id="Fill-138"></path>
        </g>
    </g>
</svg>