<?xml version="1.0" encoding="UTF-8" standalone="no"?>
<svg width="27px" height="31px" viewBox="0 0 27 31" version="1.1" xmlns="http://www.w3.org/2000/svg" xmlns:xlink="http://www.w3.org/1999/xlink">
    <!-- Generator: Sketch 39.1 (31720) - http://www.bohemiancoding.com/sketch -->
    <title>Fill 243</title>
    <desc>Created with Sketch.</desc>
    <defs></defs>
    <g id="Mobile" stroke="none" stroke-width="1" fill="none" fill-rule="evenodd">
        <g id="0.0-SandwichMenu" transform="translate(-44.000000, -135.000000)" fill="#FFFFFF">
            <g id="Group-5" transform="translate(44.000000, 135.000000)">
                <path d="M13.3549175,14.1710514 C9.85296138,10.906516 5.16390144,8.90327835 0,8.90327835 L0,25.2259553 C5.16390144,25.2259553 9.85296138,27.229193 13.3549175,30.4937284 C16.8568737,27.2440318 21.5459336,25.2259553 26.7098351,25.2259553 L26.7098351,8.90327835 C21.5459336,8.90327835 16.8568737,10.906516 13.3549175,14.1710514 L13.3549175,14.1710514 Z M13.3549175,8.90327835 C15.8181579,8.90327835 17.8065567,6.91487952 17.8065567,4.45163918 C17.8065567,1.98839883 15.8181579,1.13686838e-13 13.3549175,1.13686838e-13 C10.8916772,1.13686838e-13 8.90327835,1.98839883 8.90327835,4.45163918 C8.90327835,6.91487952 10.8916772,8.90327835 13.3549175,8.90327835 L13.3549175,8.90327835 Z" id="Fill-243"></path>
            </g>
        </g>
    </g>
</svg>