<?xml version="1.0" encoding="UTF-8" standalone="no"?>
<svg width="78px" height="97px" viewBox="0 0 78 97" version="1.1" xmlns="http://www.w3.org/2000/svg" xmlns:xlink="http://www.w3.org/1999/xlink">
    <!-- Generator: Sketch 39.1 (31720) - http://www.bohemiancoding.com/sketch -->
    <title>Artboard</title>
    <desc>Created with Sketch.</desc>
    <defs>
        <path d="M38,8 C26.94,8 18,16.94 18,28 C18,39.06 26.94,48 38,48 C49.06,48 58,39.06 58,28 C58,16.94 49.06,8 38,8 L38,8 Z M48,35.18 L45.18,38 L38,30.82 L30.82,38 L28,35.18 L35.18,28 L28,20.82 L30.82,18 L38,25.18 L45.18,18 L48,20.82 L40.82,28 L48,35.18 L48,35.18 Z" id="path-1"></path>
        <filter x="-50%" y="-50%" width="200%" height="200%" filterUnits="objectBoundingBox" id="filter-2">
            <feOffset dx="1" dy="2" in="SourceAlpha" result="shadowOffsetOuter1"></feOffset>
            <feGaussianBlur stdDeviation="2.5" in="shadowOffsetOuter1" result="shadowBlurOuter1"></feGaussianBlur>
            <feColorMatrix values="0 0 0 0 0   0 0 0 0 0   0 0 0 0 0  0 0 0 0.5 0" type="matrix" in="shadowBlurOuter1"></feColorMatrix>
        </filter>
        <text id="text-3" font-family="Raleway-Bold, Raleway" font-size="18" font-weight="bold" line-spacing="19" letter-spacing="0.063000001" fill="#4A4A4A">
            <tspan x="14" y="70">Quick</tspan>
            <tspan x="22.7705" y="89">Exit</tspan>
        </text>
        <filter x="-50%" y="-50%" width="200%" height="200%" filterUnits="objectBoundingBox" id="filter-4">
            <feOffset dx="1" dy="2" in="SourceAlpha" result="shadowOffsetOuter1"></feOffset>
            <feGaussianBlur stdDeviation="2.5" in="shadowOffsetOuter1" result="shadowBlurOuter1"></feGaussianBlur>
            <feColorMatrix values="0 0 0 0 0   0 0 0 0 0   0 0 0 0 0  0 0 0 0.5 0" type="matrix" in="shadowBlurOuter1"></feColorMatrix>
        </filter>
    </defs>
    <g id="Mobile" stroke="none" stroke-width="1" fill="none" fill-rule="evenodd">
        <g id="Artboard">
            <g id="Fill-209">
                <use fill="black" fill-opacity="1" filter="url(#filter-2)" xlink:href="#path-1"></use>
                <use fill="#4A4A4A" fill-rule="evenodd" xlink:href="#path-1"></use>
            </g>
            <g id="Quick-Exit" fill-opacity="1" fill="#4A4A4A">
                <use filter="url(#filter-4)" xlink:href="#text-3"></use>
                <use xlink:href="#text-3"></use>
            </g>
        </g>
    </g>
</svg>