<?xml version="1.0" encoding="UTF-8" standalone="no"?>
<svg width="50px" height="68px" viewBox="0 0 50 68" version="1.1" xmlns="http://www.w3.org/2000/svg" xmlns:xlink="http://www.w3.org/1999/xlink">
    <!-- Generator: Sketch 39.1 (31720) - http://www.bohemiancoding.com/sketch -->
    <title>Group 2</title>
    <desc>Created with Sketch.</desc>
    <defs></defs>
    <g id="Page-1" stroke="none" stroke-width="1" fill="none" fill-rule="evenodd">
        <g id="Letter-Copy" transform="translate(-176.000000, -461.000000)">
            <g id="Group-2" transform="translate(176.000000, 461.000000)">
                <path d="M45.4450095,28.6214689 L5.21902208,28.6214689 C2.984245,28.6214689 0.749467923,30.8091651 0.749467923,32.9968613 L0.749467923,63.6246077 C0.749467923,66.0310734 2.7607673,68 5.21902208,68 L45.4450095,68 C47.6797866,68 49.9145637,65.8123038 49.9145637,63.6246077 L49.9145637,32.9968613 C49.9145637,30.8091651 47.6797866,28.6214689 45.4450095,28.6214689 L45.4450095,28.6214689 Z M9.68857625,59.2492153 L17.510296,49.4045825 L23.0972387,55.989548 L30.9189585,46.1230383 L40.9754554,59.2492153 L9.68857625,59.2492153 L9.68857625,59.2492153 Z" id="Shape-Copy-2" fill="#4A4A4A"></path>
                <path d="M22.8458498,0 C13.419417,0 5.79545455,7.51553672 5.79545455,16.8079096 C5.79545455,29.4138418 22.8458498,48.0225989 22.8458498,48.0225989 C22.8458498,48.0225989 39.8962451,29.4138418 39.8962451,16.8079096 C39.8962451,7.51553672 32.2722826,0 22.8458498,0 L22.8458498,0 Z M22.8458498,22.8107345 C19.4844862,22.8107345 16.7564229,20.1214689 16.7564229,16.8079096 C16.7564229,13.4943503 19.4844862,10.8050847 22.8458498,10.8050847 C26.2072134,10.8050847 28.9352767,13.4943503 28.9352767,16.8079096 C28.9352767,20.1214689 26.2072134,22.8107345 22.8458498,22.8107345 L22.8458498,22.8107345 Z" id="Fill-153" fill="#FFFFFF"></path>
                <path d="M21.7539526,0 C14.2128063,0 8.11363636,6.01242938 8.11363636,13.4463277 C8.11363636,23.5310734 21.7539526,38.4180791 21.7539526,38.4180791 C21.7539526,38.4180791 35.3942688,23.5310734 35.3942688,13.4463277 C35.3942688,6.01242938 29.2950988,0 21.7539526,0 L21.7539526,0 Z M21.7539526,18.2485876 C19.0648617,18.2485876 16.8824111,16.0971751 16.8824111,13.4463277 C16.8824111,10.7954802 19.0648617,8.6440678 21.7539526,8.6440678 C24.4430435,8.6440678 26.6254941,10.7954802 26.6254941,13.4463277 C26.6254941,16.0971751 24.4430435,18.2485876 21.7539526,18.2485876 L21.7539526,18.2485876 Z" id="Fill-153" fill="#4A4A4A"></path>
            </g>
        </g>
    </g>
</svg>