<?xml version="1.0" encoding="utf-8"?>
<!-- Generator: Adobe Illustrator 20.0.0, SVG Export Plug-In . SVG Version: 6.00 Build 0)  -->
<svg version="1.1" id="Layer_1" xmlns="http://www.w3.org/2000/svg" xmlns:xlink="http://www.w3.org/1999/xlink" x="0px" y="0px"
	 viewBox="0 0 74 51" style="enable-background:new 0 0 74 51;" xml:space="preserve">
<style type="text/css">
	.st0{fill:#4A4A4A;}
</style>
<title>Group 3</title>
<desc>Created with Sketch.</desc>
<g>
	<path class="st0" d="M54.8,15.9h-0.4c-2.7,0-5.1,1.7-6,4.3l-0.3,0.9h13l-0.3-0.9C59.9,17.6,57.5,15.9,54.8,15.9z"/>
	<path class="st0" d="M54.6,12.7c3.5,0,6.3-2.8,6.3-6.3c0-3.5-2.8-6.3-6.3-6.3c-3.5,0-6.3,2.8-6.3,6.3C48.3,9.9,51.1,12.7,54.6,12.7
		z"/>
	<polygon class="st0" points="41.4,41.2 40.4,44.4 49.8,44.4 49.8,50.8 59.3,50.8 59.3,48 59.3,44.4 68.8,44.4 67.7,41.2 	"/>
	<path class="st0" d="M10.5,12.7c3.5,0,6.3-2.8,6.3-6.3C16.8,2.8,14,0,10.5,0S4.2,2.8,4.2,6.3C4.2,9.9,7,12.7,10.5,12.7z"/>
	<path class="st0" d="M15.8,15.9H6.3c-3.5,0-6.3,2.9-6.3,6.3v13h4.7v12.3v3.2h12.6V35.3H22v-13C22,18.7,19.2,15.9,15.8,15.9z"/>
</g>
<path id="Shape_1_" class="st0" d="M46.9,32.7c2.4,0,4.3-1.9,4.3-4.2s-1.9-4.2-4.3-4.2c-2.4,0-4.3,1.9-4.3,4.2S44.5,32.7,46.9,32.7
	L46.9,32.7z M64.1,24.3H52.6v9.8H41.2v-9.8h-2.9v14h31.5v-8.4C69.8,26.8,67.2,24.3,64.1,24.3L64.1,24.3z"/>
</svg>
