<?xml version="1.0" encoding="UTF-8" standalone="no"?>
<svg width="49px" height="66px" viewBox="0 0 49 66" version="1.1" xmlns="http://www.w3.org/2000/svg" xmlns:xlink="http://www.w3.org/1999/xlink">
    <!-- Generator: Sketch 39.1 (31720) - http://www.bohemiancoding.com/sketch -->
    <title>Who Do We Help</title>
    <desc>Created with Sketch.</desc>
    <defs></defs>
    <g id="Mobile" stroke="none" stroke-width="1" fill="none" fill-rule="evenodd">
        <g id="3-Services-" transform="translate(-164.000000, -454.000000)">
            <g id="Group-3" transform="translate(71.000000, 454.000000)">
                <g id="Who-Do-We-Help" transform="translate(93.000000, 0.000000)">
                    <g id="Group-6">
                        <path d="M12.2305157,1.88725676 C12.2305157,1.88725676 14.5707942,-0.0170173117 17.1066592,0.935119705 C19.6425242,1.88725672 19.1909628,2.34883115 19.7799753,3.20820751 C20.3689878,4.06758386 20.1963853,7.83153496 18.2995568,8.81444411 C16.4027282,9.79735327 13.5541046,10.4410802 11.3792185,7.83153522 C9.20433236,5.22199023 12.2305157,1.88725676 12.2305157,1.88725676 Z" id="Path-8" fill="#FFFFFF"></path>
                        <path d="M7.94473672,10.7231779 C9.1872065,10.0800951 12.5437245,10.7231779 12.5437245,10.7231779 C12.5437245,10.7231779 14.962418,12.0668729 17.3716474,10.7231779 C19.7808767,9.37948285 23.7133376,11.0393677 24.5903227,13.3155773 C25.4673078,15.5917869 30.1658909,33.3893916 30.1658909,33.3893916 L27.1153719,33.3942972 L21.9548618,18.540959 L21.3491744,22.5765039 L27.0802204,47.9194045 L3.35881868,48.0638974 L9.0051405,22.6906711 L8.77440247,18.4410627 L3.38450631,33.2248302 L0.364181554,33.1900448 L5.97625334,12.744741 C5.97625334,12.744741 6.70226693,11.3662606 7.94473672,10.7231779 Z" id="Path-9" fill="#FFFFFF"></path>
                        <path d="M27.4114556,34.4124372 L33.6639155,44.5050901 L33.6990669,64.8411322 L36.9050637,64.9205141 L38.3926931,54.8760256 L39.7699107,64.8210638 L43.0516184,64.87012 L42.6910898,45.3778234 L44.8952693,51.5540261 L47.7006291,51.241404 L44.2188283,40.1765456 C44.2188283,40.1765456 44.3049043,39.4093133 42.6910898,39.4093135 C41.0772753,39.4093138 40.5786639,39.9265809 39.7699111,40.1765457 C38.9611583,40.4265105 36.7665172,40.2755052 36.427646,40.1765457 C35.6457507,39.9482112 34.4823144,39.114255 34.4823144,39.114255 L30.2839638,34.5230367 L27.4114556,34.4124372 Z" id="Path-10" stroke="#FFFFFF"></path>
                        <polygon id="Path-11" fill="#FFFFFF" points="10.9473684 45 12.324586 64.9080461 18.0060594 64.9205141 19.684318 45.0872762"></polygon>
                        <path d="M37.6067064,34.0748685 C37.6067064,34.0748685 35.2288935,34.3428667 35.90595,37.1502215 C36.5830065,39.9575763 40.1538732,38.3364906 40.1538732,38.3364906 C40.1538732,38.3364906 42.0709327,35.3022706 40.4021378,34.449138 C38.7333429,33.5960053 37.6067064,34.0748685 37.6067064,34.0748685 Z" id="Path-12" stroke="#FFFFFF"></path>
                    </g>
                </g>
            </g>
        </g>
    </g>
</svg>