<?xml version="1.0" encoding="UTF-8" standalone="no"?>
<svg width="36px" height="35px" viewBox="0 0 36 35" version="1.1" xmlns="http://www.w3.org/2000/svg" xmlns:xlink="http://www.w3.org/1999/xlink">
    <!-- Generator: Sketch 39.1 (31720) - http://www.bohemiancoding.com/sketch -->
    <title>Shape</title>
    <desc>Created with Sketch.</desc>
    <defs></defs>
    <g id="Page-1" stroke="none" stroke-width="1" fill="none" fill-rule="evenodd">
        <g id="Letter-Copy" transform="translate(-288.000000, -379.000000)" fill="#4A4A4A">
            <path d="M320.327998,386.176026 L316.412719,386.176026 C316.610279,385.619884 316.735999,385.009922 316.735999,384.38202 C316.735999,381.403969 314.329359,379 311.347999,379 C309.462199,379 307.827839,379.968764 306.857999,381.421909 L305.959999,382.623893 L305.061999,381.403969 C304.092159,379.968764 302.457799,379 300.571999,379 C297.59064,379 295.184,381.403969 295.184,384.38202 C295.184,385.009922 295.30972,385.619884 295.50728,386.176026 L291.592,386.176026 C289.59844,386.176026 288.01796,387.772692 288.01796,389.764039 L288,409.498112 C288,411.489459 289.59844,413.086125 291.592,413.086125 L320.327998,413.086125 C322.321558,413.086125 323.919998,411.489459 323.919998,409.498112 L323.919998,389.764039 C323.919998,387.772692 322.321558,386.176026 320.327998,386.176026 L320.327998,386.176026 Z M311.347999,382.588013 C312.335799,382.588013 313.143999,383.395316 313.143999,384.38202 C313.143999,385.368723 312.335799,386.176026 311.347999,386.176026 C310.360199,386.176026 309.551999,385.368723 309.551999,384.38202 C309.551999,383.395316 310.360199,382.588013 311.347999,382.588013 L311.347999,382.588013 Z M300.571999,382.588013 C301.559799,382.588013 302.367999,383.395316 302.367999,384.38202 C302.367999,385.368723 301.559799,386.176026 300.571999,386.176026 C299.584199,386.176026 298.775999,385.368723 298.775999,384.38202 C298.775999,383.395316 299.584199,382.588013 300.571999,382.588013 L300.571999,382.588013 Z M320.327998,409.498112 L291.592,409.498112 L291.592,405.910099 L320.327998,405.910099 L320.327998,409.498112 L320.327998,409.498112 Z M320.327998,400.528079 L291.592,400.528079 L291.592,389.764039 L300.715679,389.764039 L296.98,394.841078 L299.889519,396.940066 L304.163999,391.127484 L305.959999,388.687635 L307.755999,391.127484 L312.030479,396.940066 L314.939999,394.841078 L311.204319,389.764039 L320.327998,389.764039 L320.327998,400.528079 L320.327998,400.528079 Z" id="Shape"></path>
        </g>
    </g>
</svg>