<?xml version="1.0" encoding="UTF-8" standalone="no"?>
<svg width="33px" height="47px" viewBox="0 0 33 47" version="1.1" xmlns="http://www.w3.org/2000/svg" xmlns:xlink="http://www.w3.org/1999/xlink">
    <!-- Generator: Sketch 39.1 (31720) - http://www.bohemiancoding.com/sketch -->
    <title>Shape Copy 3</title>
    <desc>Created with Sketch.</desc>
    <defs></defs>
    <g id="Mobile" stroke="none" stroke-width="1" fill="none" fill-rule="evenodd">
        <g id="3-Services-" transform="translate(-117.000000, -2027.000000)" fill="#4A4A4A">
            <g id="Group-24" transform="translate(117.000000, 2017.000000)">
                <path d="M9.16896093,54.1379484 C9.16896093,55.4156258 10.200469,56.4609983 11.4612012,56.4609983 L20.6301621,56.4609983 C21.8908942,56.4609983 22.9224023,55.4156258 22.9224023,54.1379484 L22.9224023,51.8148984 L9.16896093,51.8148984 L9.16896093,54.1379484 L9.16896093,54.1379484 Z M16.0456816,10 C7.19763433,10 0,17.2943767 0,26.2613494 C0,31.7902082 2.72776588,36.6453825 6.8767207,39.5956559 L6.8767207,44.8457487 C6.8767207,46.1234262 7.9082288,47.1687986 9.16896093,47.1687986 L22.9224023,47.1687986 C24.1831345,47.1687986 25.2146426,46.1234262 25.2146426,44.8457487 L25.2146426,39.5956559 C29.3635974,36.6453825 32.0913633,31.7902082 32.0913633,26.2613494 C32.0913633,17.2943767 24.8937289,10 16.0456816,10 L16.0456816,10 Z M22.5785663,35.785854 L20.6301621,37.179684 L20.6301621,42.5226988 L11.4612012,42.5226988 L11.4612012,37.179684 L9.51279697,35.785854 C6.41827265,33.6021871 4.58448047,30.0479208 4.58448047,26.2613494 C4.58448047,19.8497316 9.71909859,14.6460998 16.0456816,14.6460998 C22.3722647,14.6460998 27.5068828,19.8497316 27.5068828,26.2613494 C27.5068828,30.0479208 25.6730906,33.6021871 22.5785663,35.785854 L22.5785663,35.785854 Z" id="Shape-Copy-3"></path>
            </g>
        </g>
    </g>
</svg>