<?xml version="1.0" encoding="UTF-8" standalone="no"?>
<svg width="52px" height="53px" viewBox="0 0 52 53" version="1.1" xmlns="http://www.w3.org/2000/svg" xmlns:xlink="http://www.w3.org/1999/xlink">
    <!-- Generator: Sketch 39.1 (31720) - http://www.bohemiancoding.com/sketch -->
    <title>Shape</title>
    <desc>Created with Sketch.</desc>
    <defs></defs>
    <g id="Page-1" stroke="none" stroke-width="1" fill="none" fill-rule="evenodd">
        <g id="Letter-Copy" transform="translate(-58.000000, -479.000000)" fill="#4A4A4A">
            <path d="M110,499.846761 L90.4120094,499.846761 L98.3281,491.590038 C90.4409003,483.684665 77.6711483,483.391874 69.7839486,491.297247 C61.8967488,499.231899 61.8967488,512.026892 69.7839486,519.961544 C77.6711483,527.896196 90.4409003,527.896196 98.3281,519.961544 C102.257254,516.038137 104.221832,511.441309 104.221832,505.644035 L110,505.644035 C110,511.441309 107.457606,518.966052 102.372818,524.060626 C92.2321325,534.249774 75.7643528,534.249774 65.6236674,524.060626 C55.5118729,513.900758 55.4252003,497.387312 65.5658857,487.227444 C75.7065711,477.067575 91.9721149,477.067575 102.1128,487.227444 L110,479 L110,499.846761 L110,499.846761 Z M85.4427847,493.63958 L85.4427847,506.083222 L95.5545792,512.173287 L93.4744386,515.716066 L81.1091585,508.279159 L81.1091585,493.63958 L85.4427847,493.63958 L85.4427847,493.63958 Z" id="Shape"></path>
        </g>
    </g>
</svg>