<?xml version="1.0" encoding="UTF-8" standalone="no"?>
<svg width="50px" height="48px" viewBox="0 0 50 48" version="1.1" xmlns="http://www.w3.org/2000/svg" xmlns:xlink="http://www.w3.org/1999/xlink">
    <!-- Generator: Sketch 39.1 (31720) - http://www.bohemiancoding.com/sketch -->
    <title>Shape</title>
    <desc>Created with Sketch.</desc>
    <defs></defs>
    <g id="Mobile" stroke="none" stroke-width="1" fill="none" fill-rule="evenodd">
        <g id="4.1-Resources_A-B" transform="translate(-160.000000, -170.000000)" fill="#5B5B5B">
            <path d="M209.429314,208.409702 C209.429314,212.800053 205.88485,216.392158 201.552726,216.392158 L187.177953,216.392158 C185.051275,216.392158 183.042745,215.534044 181.565884,214.017378 L166.320946,198.34725 C168.139097,195.982815 168.667971,195.59786 168.667971,195.59786 C169.101184,195.218694 169.632854,195.019132 170.223598,195.019132 C170.65681,195.019132 171.050639,195.138869 171.405086,195.33843 C171.483852,195.358387 179.892109,200.247641 179.892109,200.247641 L179.892109,176.479878 C179.892109,174.823518 181.211438,173.486457 182.84583,173.486457 C184.480222,173.486457 185.79955,174.823518 185.79955,176.479878 L185.79955,190.449176 L187.768697,190.449176 L187.768697,171.490843 C187.768697,169.834483 189.088026,168.497422 190.722418,168.497422 C192.35681,168.497422 193.676138,169.834483 193.676138,171.490843 L193.676138,190.449176 L195.645285,190.449176 L195.645285,173.486457 C195.645285,171.830097 196.964614,170.493036 198.599006,170.493036 C200.233398,170.493036 201.552726,171.830097 201.552726,173.486457 L201.552726,190.449176 L203.521873,190.449176 L203.521873,179.473299 C203.521873,177.816939 204.841202,176.479878 206.475594,176.479878 C208.109986,176.479878 209.429314,177.816939 209.429314,179.473299 L209.429314,208.409702 Z" id="Shape" transform="translate(187.875130, 192.444790) rotate(110.000000) translate(-187.875130, -192.444790) "></path>
        </g>
    </g>
</svg>