<?xml version="1.0" encoding="utf-8"?>
<!-- Generator: Adobe Illustrator 20.0.0, SVG Export Plug-In . SVG Version: 6.00 Build 0)  -->
<svg version="1.1" id="Layer_1" xmlns="http://www.w3.org/2000/svg" xmlns:xlink="http://www.w3.org/1999/xlink" x="0px" y="0px"
	 viewBox="0 0 50 68" style="enable-background:new 0 0 50 68;" xml:space="preserve">
<style type="text/css">
	.st0{fill:#4A4A4A;}
</style>
<title>Group 2</title>
<desc>Created with Sketch.</desc>
<path class="st0" d="M45.4,28.6h-9c-5,10-13.6,19.4-13.6,19.4s-8.6-9.4-13.6-19.4h-4c-2.2,0-4.5,2.2-4.5,4.4v30.6
	c0,2.4,2,4.4,4.5,4.4h40.2c2.2,0,4.5-2.2,4.5-4.4V33C49.9,30.8,47.7,28.6,45.4,28.6z M9.7,59.2l7.8-9.8l5.6,6.6l7.8-9.9L41,59.2H9.7
	z"/>
<path id="Fill-153_1_" class="st0" d="M21.8,0C14.2,0,8.1,6,8.1,13.4c0,10.1,13.6,25,13.6,25s13.6-14.9,13.6-25
	C35.4,6,29.3,0,21.8,0L21.8,0z M21.8,18.2c-2.7,0-4.9-2.2-4.9-4.8s2.2-4.8,4.9-4.8s4.9,2.2,4.9,4.8S24.4,18.2,21.8,18.2L21.8,18.2z"
	/>
</svg>
