<?xml version="1.0" encoding="UTF-8" standalone="no"?>
<svg width="56px" height="59px" viewBox="0 0 56 59" version="1.1" xmlns="http://www.w3.org/2000/svg" xmlns:xlink="http://www.w3.org/1999/xlink">
    <!-- Generator: Sketch 39.1 (31720) - http://www.bohemiancoding.com/sketch -->
    <title>Group 4</title>
    <desc>Created with Sketch.</desc>
    <defs></defs>
    <g id="Mobile" stroke="none" stroke-width="1" fill="none" fill-rule="evenodd">
        <g id="3-Services-" transform="translate(-73.000000, -764.000000)" fill="#4A4A4A">
            <g id="Group-4" transform="translate(73.000000, 764.000000)">
                <path d="M-7.10542736e-15,27.9069767 C-7.10542736e-15,27.9069767 14,53.3003066 28,53.3003066 C42,53.3003066 56,27.9069767 56,27.9069767 L56,58.6421612 L-7.10542736e-15,58.6421612 L-7.10542736e-15,27.9069767 Z" id="Rectangle-2"></path>
                <g id="Group-16-Copy-2">
                    <path d="M19.5607991,27.1548825 C17.6326632,27.1548825 16.0677993,28.7145475 16.0677993,30.6362777 C16.0677993,32.5580078 17.6326632,34.1176729 19.5607991,34.1176729 C21.488935,34.1176729 23.0537989,32.5580078 23.0537989,30.6362777 C23.0537989,28.7145475 21.488935,27.1548825 19.5607991,27.1548825 L19.5607991,27.1548825 Z M36.3271983,27.1548825 C34.3990624,27.1548825 32.8341985,28.7145475 32.8341985,30.6362777 C32.8341985,32.5580078 34.3990624,34.1176729 36.3271983,34.1176729 C38.2553342,34.1176729 39.8201982,32.5580078 39.8201982,30.6362777 C39.8201982,28.7145475 38.2553342,27.1548825 36.3271983,27.1548825 L36.3271983,27.1548825 Z M27.9439987,0 C12.5189114,0 0,12.4773204 0,27.8511615 C0,43.2250027 12.5189114,55.702323 27.9439987,55.702323 C43.369086,55.702323 55.8879974,43.2250027 55.8879974,27.8511615 C55.8879974,12.4773204 43.369086,0 27.9439987,0 L27.9439987,0 Z M27.9439987,50.1320907 C15.6206953,50.1320907 5.58879974,40.1335237 5.58879974,27.8511615 C5.58879974,27.0434778 5.64468774,26.2357941 5.72851974,25.4559616 C12.3233034,22.5315897 17.5488312,17.1563155 20.2873431,10.4998879 C25.3452068,17.6297852 33.6725185,22.2809292 43.089646,22.2809292 C45.2692779,22.2809292 47.3650778,22.0302688 49.3770457,21.556799 C49.9638697,23.5342315 50.2991977,25.6509198 50.2991977,27.8511615 C50.2991977,40.1335237 40.2673022,50.1320907 27.9439987,50.1320907 L27.9439987,50.1320907 Z" id="Shape"></path>
                </g>
            </g>
        </g>
    </g>
</svg>