<?xml version="1.0" encoding="utf-8"?>
<!-- Generator: Adobe Illustrator 20.0.0, SVG Export Plug-In . SVG Version: 6.00 Build 0)  -->
<svg version="1.1" id="Layer_1" xmlns="http://www.w3.org/2000/svg" xmlns:xlink="http://www.w3.org/1999/xlink" x="0px" y="0px"
	 viewBox="0 0 116 26" style="enable-background:new 0 0 116 26;" xml:space="preserve">
<style type="text/css">
	.st0{enable-background:new    ;}
	.st1{fill:#FFFFFF;}
</style>
<title>Group 3</title>
<desc>Created with Sketch.</desc>
<g id="Symbols">
	<g id="Header-" transform="translate(-236.000000, -38.000000)">
		<g id="Group-3" transform="translate(236.000000, 33.000000)">
			<g class="st0">
				<path class="st1" d="M50.4,22.6L50.4,22.6l5.7-14.7h4.2V27h-2.7V11h-0.1l-6.3,16h-1.7l-6.3-16h-0.1v16h-2.6V7.9h4.2L50.4,22.6z"
					/>
				<path class="st1" d="M67,24.6h10V27H64.3V7.9h12.3v2.3H67V16h9v2.3h-9V24.6z"/>
				<path class="st1" d="M93.3,23.2L93.3,23.2l0.1-15.3h2.7V27h-3.4L82.6,11.4h-0.1V27h-2.7V7.9h3.5L93.3,23.2z"/>
				<path class="st1" d="M107.4,27.5c-1.3,0-2.4-0.2-3.3-0.6c-0.9-0.4-1.7-1-2.3-1.7s-1.1-1.5-1.4-2.4c-0.3-0.9-0.4-1.8-0.4-2.8v-12
					h2.7v11.9c0,0.6,0.1,1.3,0.2,1.9c0.2,0.6,0.4,1.2,0.8,1.7s0.9,0.9,1.5,1.2c0.6,0.3,1.4,0.5,2.3,0.5c0.9,0,1.6-0.2,2.2-0.5
					c0.6-0.3,1.1-0.7,1.5-1.2c0.4-0.5,0.6-1.1,0.8-1.7c0.2-0.6,0.2-1.3,0.2-1.9V7.9h2.7v12c0,1-0.1,1.9-0.4,2.8
					c-0.3,0.9-0.8,1.7-1.4,2.4c-0.6,0.7-1.4,1.3-2.3,1.7C109.7,27.3,108.6,27.5,107.4,27.5z"/>
			</g>
			<path id="Shape" class="st1" d="M2.1,20.1c-0.7,0-1.4-1.1-1.4-2.4c0-1.3,0.6-2.4,1.4-2.4h24.3c0.7,0,1.4,1.1,1.4,2.4
				c0,1.3-0.6,2.4-1.4,2.4H2.1z M26.4,10H2.1c-0.7,0-1.4-1.1-1.4-2.4s0.6-2.4,1.4-2.4h24.3c0.7,0,1.4,1.1,1.4,2.4S27.1,10,26.4,10
				L26.4,10z M2.1,25.5h24.3c0.7,0,1.4,1.1,1.4,2.4s-0.6,2.4-1.4,2.4H2.1c-0.7,0-1.4-1.1-1.4-2.4S1.3,25.5,2.1,25.5L2.1,25.5z"/>
		</g>
	</g>
</g>
</svg>
