<?xml version="1.0" encoding="UTF-8" standalone="no"?>
<svg width="36px" height="36px" viewBox="0 0 36 36" version="1.1" xmlns="http://www.w3.org/2000/svg" xmlns:xlink="http://www.w3.org/1999/xlink">
    <!-- Generator: Sketch 39.1 (31720) - http://www.bohemiancoding.com/sketch -->
    <title>Fill 363</title>
    <desc>Created with Sketch.</desc>
    <defs></defs>
    <g id="Mobile" stroke="none" stroke-width="1" fill="none" fill-rule="evenodd">
        <g id="6-Donate" transform="translate(-32.000000, -2360.000000)" fill="#4A4A4A">
            <path d="M64,2360 L36,2360 C33.8,2360 32,2361.8 32,2364 L32,2392 C32,2394.2 33.8,2396 36,2396 L64,2396 C66.2,2396 68,2394.2 68,2392 L68,2364 C68,2361.8 66.2,2360 64,2360 L64,2360 Z M36,2364 L64,2364 L64,2392 L36,2392 L36,2364 Z M56,2384 L48,2384 L48,2380 L52,2380 C54.2,2380 56,2378.22 56,2376 L56,2372 C56,2369.78 54.2,2368 52,2368 L44,2368 L44,2372 L52,2372 L52,2376 L48,2376 C45.8,2376 44,2377.78 44,2380 L44,2388 L56,2388 L56,2384 L56,2384 Z" id="Fill-363"></path>
        </g>
    </g>
</svg>