<?xml version="1.0" encoding="utf-8"?>
<!-- Generator: Adobe Illustrator 20.0.0, SVG Export Plug-In . SVG Version: 6.00 Build 0)  -->
<svg version="1.1" id="Layer_1" xmlns="http://www.w3.org/2000/svg" xmlns:xlink="http://www.w3.org/1999/xlink" x="0px" y="0px"
	 viewBox="0 0 40 40" style="enable-background:new 0 0 40 40;" xml:space="preserve">
<style type="text/css">
	.st0{fill:#FFFFFF;}
</style>
<title>Fill 9</title>
<desc>Created with Sketch.</desc>
<g id="Mobile">
	<g id="_x32_-About" transform="translate(-168.000000, -723.000000)">
		<path id="Fill-9" class="st0" d="M188,723c-11,0-20,8.9-20,20c0,11,8.9,20,20,20c11,0,20-8.9,20-20C207.9,731.9,199,723,188,723
			L188,723z M188,729c3.3,0,6,2.7,6,6c0,3.3-2.7,6-6,6c-3.3,0-6-2.7-6-6C182,731.7,184.6,729,188,729L188,729z M188,757.3
			c-5,0-9.4-2.6-12-6.4c0.1-4,8-6.1,12-6.1c4,0,11.9,2.2,12,6.1C197.4,754.8,193,757.3,188,757.3L188,757.3z"/>
	</g>
</g>
</svg>
