<?xml version="1.0" encoding="UTF-8" standalone="no"?>
<svg width="54px" height="47px" viewBox="0 0 54 47" version="1.1" xmlns="http://www.w3.org/2000/svg" xmlns:xlink="http://www.w3.org/1999/xlink">
    <!-- Generator: Sketch 39.1 (31720) - http://www.bohemiancoding.com/sketch -->
    <title>Shape</title>
    <desc>Created with Sketch.</desc>
    <defs></defs>
    <g id="Page-1" stroke="none" stroke-width="1" fill="none" fill-rule="evenodd">
        <g id="Letter-Copy" transform="translate(-174.000000, -231.000000)" fill="#4A4A4A">
            <path d="M193.32661,262.827862 C186.876354,262.827862 174,266.10858 174,272.62105 L174,277.517644 L212.65322,277.517644 L212.65322,272.62105 C212.65322,266.10858 199.776866,262.827862 193.32661,262.827862 L193.32661,262.827862 Z M212.073422,239.226278 L208.014834,243.3639 C210.044128,246.252891 210.044128,249.998785 208.014834,252.887776 L212.073422,257.025398 C216.953391,252.079838 216.953391,244.612532 212.073422,239.226278 L212.073422,239.226278 Z M220.069807,231 L216.13201,234.990724 C222.823849,242.384581 222.823849,253.49985 216.13201,261.285434 L220.069807,265.276159 C229.491529,255.752283 229.515687,240.915603 220.069807,231 L220.069807,231 Z M193.32661,257.931267 C198.663506,257.931267 202.989915,253.546708 202.989915,248.138079 C202.989915,242.729451 198.663506,238.344891 193.32661,238.344891 C187.989714,238.344891 183.663305,242.729451 183.663305,248.138079 C183.663305,253.546708 187.989714,257.931267 193.32661,257.931267 Z" id="Shape"></path>
        </g>
    </g>
</svg>