<?xml version="1.0" encoding="UTF-8" standalone="no"?>
<svg width="36px" height="36px" viewBox="0 0 36 36" version="1.1" xmlns="http://www.w3.org/2000/svg" xmlns:xlink="http://www.w3.org/1999/xlink">
    <!-- Generator: Sketch 39.1 (31720) - http://www.bohemiancoding.com/sketch -->
    <title>Fill 107</title>
    <desc>Created with Sketch.</desc>
    <defs></defs>
    <g id="Mobile" stroke="none" stroke-width="1" fill="none" fill-rule="evenodd">
        <g id="7-Contact-Us-" transform="translate(-170.000000, -165.000000)" fill="#4A4A4A">
            <path d="M204,190 C201.5,190 199.1,189.6 196.86,188.859 C196.16,188.64 195.38,188.8 194.82,189.339 L190.42,193.74 C184.76,190.86 180.12,186.24 177.24,180.579 L181.64,176.16 C182.2,175.62 182.36,174.84 182.14,174.14 C181.4,171.9 181,169.5 181,167 C181,165.9 180.1,165 179,165 L172,165 C170.9,165 170,165.9 170,167 C170,185.78 185.22,201 204,201 C205.1,201 206,200.1 206,199 L206,192 C206,190.9 205.1,190 204,190 L204,190 Z M188,165 L188,185 L194,179 L206,179 L206,165 L188,165 L188,165 Z" id="Fill-107"></path>
        </g>
    </g>
</svg>