<?xml version="1.0" encoding="utf-8"?>
<!-- Generator: Adobe Illustrator 20.0.0, SVG Export Plug-In . SVG Version: 6.00 Build 0)  -->
<svg version="1.1" id="Layer_1" xmlns="http://www.w3.org/2000/svg" xmlns:xlink="http://www.w3.org/1999/xlink" x="0px" y="0px"
	 viewBox="0 0 46 32" style="enable-background:new 0 0 46 32;" xml:space="preserve">
<style type="text/css">
	.st0{fill:#FFFFFF;}
</style>
<title>Fill 8</title>
<desc>Created with Sketch.</desc>
<g id="Mobile">
	<g id="_x32_-About" transform="translate(-165.000000, -3163.000000)">
		<path id="Fill-8" class="st0" d="M198.1,3179c3.2,0,5.7-2.6,5.7-5.7c0-3.2-2.5-5.7-5.7-5.7c-3.2,0-5.7,2.6-5.7,5.7
			C192.4,3176.4,195,3179,198.1,3179L198.1,3179z M181,3176.7c3.8,0,6.8-3.1,6.8-6.9c0-3.8-3-6.9-6.8-6.9s-6.9,3.1-6.9,6.9
			C174.1,3173.7,177.2,3176.7,181,3176.7L181,3176.7z M198.1,3183.6c-4.2,0-12.6,2.1-12.6,6.3v5.1h25.1v-5.1
			C210.7,3185.7,202.3,3183.6,198.1,3183.6L198.1,3183.6z M181,3181.3c-5.3,0-16,2.7-16,8v5.7h16v-5.1c0-1.9,0.8-5.3,5.4-7.9
			C184.4,3181.5,182.5,3181.3,181,3181.3L181,3181.3z"/>
	</g>
</g>
</svg>
