<?xml version="1.0" encoding="UTF-8" standalone="no"?>
<svg width="24px" height="26px" viewBox="0 0 24 26" version="1.1" xmlns="http://www.w3.org/2000/svg" xmlns:xlink="http://www.w3.org/1999/xlink">
    <!-- Generator: Sketch 39.1 (31720) - http://www.bohemiancoding.com/sketch -->
    <title>Fill 3</title>
    <desc>Created with Sketch.</desc>
    <defs></defs>
    <g id="Mobile" stroke="none" stroke-width="1" fill="none" fill-rule="evenodd">
        <g id="0.0-SandwichMenu" transform="translate(-47.000000, -348.000000)" fill="#FFFFFF">
            <g id="Group-7" transform="translate(47.000000, 348.000000)">
                <path d="M2.46833588,19.748542 L6.17145802,19.748542 L6.17145802,11.1087481 L2.46833588,11.1087481 L2.46833588,19.748542 Z M9.87396183,19.748542 L13.5764656,19.748542 L13.5764656,11.1087481 L9.87396183,11.1087481 L9.87396183,19.748542 Z M0,25.92 L23.4510458,25.92 L23.4510458,22.2168779 L0,22.2168779 L0,25.92 Z M17.2795878,19.748542 L20.9820916,19.748542 L20.9820916,11.1087481 L17.2795878,11.1087481 L17.2795878,19.748542 Z M11.7252137,0 L0,6.17145802 L0,8.64041221 L23.4510458,8.64041221 L23.4510458,6.17145802 L11.7252137,0 L11.7252137,0 Z" id="Fill-3"></path>
            </g>
        </g>
    </g>
</svg>