<?xml version="1.0" encoding="utf-8"?>
<!-- Generator: Adobe Illustrator 20.0.0, SVG Export Plug-In . SVG Version: 6.00 Build 0)  -->
<svg version="1.1" id="Layer_1" xmlns="http://www.w3.org/2000/svg" xmlns:xlink="http://www.w3.org/1999/xlink" x="0px" y="0px"
	 viewBox="0 0 50 48" style="enable-background:new 0 0 50 48;" xml:space="preserve">
<style type="text/css">
	.st0{fill:#FFFFFF;}
</style>
<title>Shape</title>
<desc>Created with Sketch.</desc>
<g id="Mobile">
	<g id="_x34_.1-Resources_x5F_A-B" transform="translate(-160.000000, -170.000000)">
		<path id="Shape" class="st0" d="M165.5,207.2c-4.1-1.5-6.3-6.1-4.8-10.1l4.9-13.5c0.7-2,2.2-3.6,4.2-4.5l19.9-9
			c1.6,2.5,1.8,3.1,1.8,3.1c0.2,0.5,0.2,1.1,0,1.7c-0.1,0.4-0.4,0.7-0.7,1c0,0.1-7.5,6.3-7.5,6.3l22.3,8.1c1.6,0.6,2.4,2.3,1.8,3.8
			c-0.6,1.5-2.3,2.3-3.8,1.8l-13.1-4.8l-0.7,1.9l17.8,6.5c1.6,0.6,2.4,2.3,1.8,3.8s-2.3,2.3-3.8,1.8l-17.8-6.5l-0.7,1.9l15.9,5.8
			c1.6,0.6,2.4,2.3,1.8,3.8c-0.6,1.5-2.3,2.3-3.8,1.8l-15.9-5.8l-0.7,1.9l10.3,3.8c1.6,0.6,2.4,2.3,1.8,3.8
			c-0.6,1.5-2.3,2.3-3.8,1.8L165.5,207.2z"/>
	</g>
</g>
</svg>
