<?xml version="1.0" encoding="UTF-8" standalone="no"?>
<svg width="123px" height="45px" viewBox="0 0 123 45" version="1.1" xmlns="http://www.w3.org/2000/svg" xmlns:xlink="http://www.w3.org/1999/xlink">
    <!-- Generator: Sketch 39.1 (31720) - http://www.bohemiancoding.com/sketch -->
    <title>Group 4</title>
    <desc>Created with Sketch.</desc>
    <defs>
        <circle id="path-1" cx="22.5" cy="22.5" r="22.5"></circle>
        <mask id="mask-2" maskContentUnits="userSpaceOnUse" maskUnits="objectBoundingBox" x="0" y="0" width="45" height="45" fill="white">
            <use xlink:href="#path-1"></use>
        </mask>
        <circle id="path-3" cx="22.7192217" cy="22.5" r="22.5"></circle>
        <mask id="mask-4" maskContentUnits="userSpaceOnUse" maskUnits="objectBoundingBox" x="0" y="0" width="45" height="45" fill="white">
            <use xlink:href="#path-3"></use>
        </mask>
    </defs>
    <g id="Page-1" stroke="none" stroke-width="1" fill="none" fill-rule="evenodd">
        <g id="Letter-Copy" transform="translate(-406.000000, -671.000000)">
            <g id="Group-4" transform="translate(406.000000, 671.000000)">
                <g id="Group-8" transform="translate(78.000000, 0.000000)">
                    <use id="Oval-2-Copy" stroke="#FFFFFF" mask="url(#mask-2)" stroke-width="2" xlink:href="#path-1"></use>
                    <path d="M34.7141858,16.2070078 C33.8795858,16.5813508 32.9809909,16.8345037 32.0383995,16.9476145 C33.0009893,16.3659016 33.7395969,15.4435097 34.0875691,14.3447187 C33.1863078,14.8833418 32.1903873,15.27519 31.1264723,15.485253 C30.2785401,14.5709404 29.0666368,14 27.7254106,14 C25.1536161,14 23.067116,16.1073626 23.067116,18.7062187 C23.067116,19.0751754 23.1071129,19.4333597 23.1871065,19.7780785 C19.3140825,19.5814811 15.8810233,17.7097661 13.581207,14.8591037 C13.1799058,15.5566205 12.9505907,16.3659016 12.9505907,17.2276985 C12.9505907,18.8597262 13.7731917,20.3005428 15.0237585,21.1448344 C14.2611527,21.1219429 13.5412102,20.9078403 12.9119272,20.5577353 L12.9119272,20.6156373 C12.9119272,22.8967058 14.5184655,24.7993916 16.6516285,25.23029 C16.260993,25.3407077 15.8490259,25.3959166 15.4237265,25.3959166 C15.1237505,25.3959166 14.8304406,25.3676389 14.5464633,25.31243 C15.1397492,27.1814519 16.8596119,28.5428216 18.8994489,28.5791786 C17.3049096,29.8422496 15.2944035,30.5949753 13.1119112,30.5949753 C12.7359412,30.5949753 12.3639709,30.5734304 12,30.5303405 C14.0625019,31.8634325 16.5129729,32.6430893 19.1434294,32.6430893 C27.7160781,32.6430893 32.4023704,25.4726704 32.4023704,19.252921 C32.4023704,19.0482443 32.3983707,18.8435675 32.3903714,18.6429304 C33.3009653,17.9790776 34.0915688,17.1509447 34.7141858,16.2070078" id="Twitter" fill="#FFFFFF"></path>
                </g>
                <g id="Group-9">
                    <use id="Oval-2-Copy-2" stroke="#FFFFFF" mask="url(#mask-4)" stroke-width="2" xlink:href="#path-3"></use>
                    <path d="M19.6799398,34.064738 C19.6799398,34.1168078 19.6799398,23.0879632 19.6799398,23.0879632 L16,23.0879632 L16,18.8157405 L19.5979581,18.8157405 C19.5979581,18.8157405 19.597958,16.6218854 19.5979581,14.7561467 C19.5979582,12.890408 20.9965973,9.02476946 28.5666233,10.2276995 C28.5666227,12.9288668 28.5666233,14.1207552 28.5666233,14.1207552 C28.5666233,14.1207552 26.8884547,14.0963599 26.0695614,14.0963598 C25.250668,14.0963598 24.1268528,14.5688512 24.1268527,15.6014646 C24.1268526,16.634078 24.1268527,18.8157405 24.1268527,18.8157405 L28.3993284,18.8157405 L27.8892025,23.0879632 L24.0867438,23.0879632 L24.0867438,34.064738" id="Path-2" fill="#FFFFFF"></path>
                </g>
            </g>
        </g>
    </g>
</svg>