<?xml version="1.0" encoding="UTF-8" standalone="no"?>
<svg width="36px" height="36px" viewBox="0 0 36 36" version="1.1" xmlns="http://www.w3.org/2000/svg" xmlns:xlink="http://www.w3.org/1999/xlink">
    <!-- Generator: Sketch 39.1 (31720) - http://www.bohemiancoding.com/sketch -->
    <title>Fill 364</title>
    <desc>Created with Sketch.</desc>
    <defs></defs>
    <g id="Mobile" stroke="none" stroke-width="1" fill="none" fill-rule="evenodd">
        <g id="6-Donate" transform="translate(-32.000000, -2543.000000)" fill="#4A4A4A">
            <path d="M64,2543 L36,2543 C33.8,2543 32,2544.8 32,2547 L32,2575 C32,2577.2 33.8,2579 36,2579 L64,2579 C66.2,2579 68,2577.2 68,2575 L68,2547 C68,2544.8 66.2,2543 64,2543 L64,2543 Z M36,2547 L64,2547 L64,2575 L36,2575 L36,2547 Z M56,2567 L56,2564 C56,2562.34 54.66,2561 53,2561 C54.66,2561 56,2559.66 56,2558 L56,2555 C56,2552.78 54.2,2551 52,2551 L44,2551 L44,2555 L52,2555 L52,2559 L48,2559 L48,2563 L52,2563 L52,2567 L44,2567 L44,2571 L52,2571 C54.2,2571 56,2569.22 56,2567 L56,2567 Z" id="Fill-364"></path>
        </g>
    </g>
</svg>