<?xml version="1.0" encoding="UTF-8" standalone="no"?>
<svg width="116px" height="26px" viewBox="0 0 116 26" version="1.1" xmlns="http://www.w3.org/2000/svg" xmlns:xlink="http://www.w3.org/1999/xlink">
    <!-- Generator: Sketch 39.1 (31720) - http://www.bohemiancoding.com/sketch -->
    <title>Group 3</title>
    <desc>Created with Sketch.</desc>
    <defs></defs>
    <g id="Symbols" stroke="none" stroke-width="1" fill="none" fill-rule="evenodd">
        <g id="Header-" transform="translate(-236.000000, -38.000000)" fill="#FFFFFF">
            <g id="Group-3" transform="translate(236.000000, 33.000000)">
                <text id="MENU" font-family="AvenirNext-DemiBold, Avenir Next" font-size="27" font-weight="500" letter-spacing="-0.651176453">
                    <tspan x="38.2354958" y="27">MENU</tspan>
                </text>
                <path d="M2.0588333,20.1353445 C1.31328481,20.1353445 0.70820198,19.0504829 0.70820198,17.7137784 C0.70820198,16.3770739 1.31328481,15.2922123 2.0588333,15.2922123 L26.3701971,15.2922123 C27.1157456,15.2922123 27.7208284,16.3770739 27.7208284,17.7137784 C27.7208284,19.0504829 27.1157456,20.1353445 26.3701971,20.1353445 L2.0588333,20.1353445 Z M26.3701971,9.9676587 L2.0588333,9.9676587 C1.31328481,9.9676587 0.70820198,8.88279709 0.70820198,7.54609261 C0.70820198,6.20938813 1.31328481,5.12452652 2.0588333,5.12452652 L26.3701971,5.12452652 C27.1157456,5.12452652 27.7208284,6.20938813 27.7208284,7.54609261 C27.7208284,8.88279709 27.1157456,9.9676587 26.3701971,9.9676587 L26.3701971,9.9676587 Z M2.0588333,25.4598981 L26.3701971,25.4598981 C27.1157456,25.4598981 27.7208284,26.5447597 27.7208284,27.8814642 C27.7208284,29.2181687 27.1157456,30.3030303 26.3701971,30.3030303 L2.0588333,30.3030303 C1.31328481,30.3030303 0.70820198,29.2181687 0.70820198,27.8814642 C0.70820198,26.5447597 1.31328481,25.4598981 2.0588333,25.4598981 L2.0588333,25.4598981 Z" id="Shape"></path>
            </g>
        </g>
    </g>
</svg>