<?xml version="1.0" encoding="UTF-8" standalone="no"?>
<svg width="98px" height="108px" viewBox="0 0 98 108" version="1.1" xmlns="http://www.w3.org/2000/svg" xmlns:xlink="http://www.w3.org/1999/xlink">
    <!-- Generator: Sketch 39.1 (31720) - http://www.bohemiancoding.com/sketch -->
    <title>Group 8</title>
    <desc>Created with Sketch.</desc>
    <defs></defs>
    <g id="Desktop-" stroke="none" stroke-width="1" fill="none" fill-rule="evenodd">
        <g id="Students" transform="translate(-292.000000, -2393.000000)">
            <g id="Group-6" transform="translate(250.000000, 2393.000000)">
                <g id="Group-8" transform="translate(42.000000, 0.000000)">
                    <rect id="Rectangle-8-Copy" fill="#5B5B5B" x="0" y="0" width="98" height="108" rx="4"></rect>
                    <path d="M70.2330468,27.8985793 L58.2851863,27.8985793 C57.0848138,24.245719 53.94064,21.6 50.223496,21.6 C46.5077844,21.6 43.3636105,24.245719 42.163238,27.8985793 L30.2153775,27.8985793 C27.0712037,27.8985793 24.5,30.7337292 24.5,34.1987371 L24.5,78.2998421 C24.5,81.76485 27.0712037,84.6 30.2153775,84.6 L70.2330468,84.6 C73.3772207,84.6 75.9498568,81.76485 75.9498568,78.2998421 L75.9498568,34.1987371 C75.9498568,30.7337292 73.3772207,27.8985793 70.2330468,27.8985793 L70.2330468,27.8985793 Z M50.223496,27.8985793 C51.7962991,27.8985793 53.0826171,29.3161543 53.0826171,31.0494475 C53.0826171,32.7827407 51.7962991,34.1987371 50.223496,34.1987371 C48.6521253,34.1987371 47.3658072,32.7827407 47.3658072,31.0494475 C47.3658072,29.3161543 48.6521253,27.8985793 50.223496,27.8985793 L50.223496,27.8985793 Z M50.223496,40.498895 C54.9691214,40.498895 58.799427,44.7200481 58.799427,49.9499211 C58.799427,55.1782154 54.9691214,59.3993686 50.223496,59.3993686 C45.4793029,59.3993686 41.6489973,55.1782154 41.6489973,49.9499211 C41.6489973,44.7200481 45.4793029,40.498895 50.223496,40.498895 L50.223496,40.498895 Z M67.3739257,78.2998421 L33.0744987,78.2998421 L33.0744987,73.8892581 C33.0744987,67.5891002 44.5081185,64.1240923 50.223496,64.1240923 C55.9403059,64.1240923 67.3739257,67.5891002 67.3739257,73.8892581 L67.3739257,78.2998421 L67.3739257,78.2998421 Z" id="Fill-18" fill="#FFFFFF"></path>
                </g>
            </g>
        </g>
    </g>
</svg>