<?xml version="1.0" encoding="utf-8"?>
<!-- Generator: Adobe Illustrator 20.0.0, SVG Export Plug-In . SVG Version: 6.00 Build 0)  -->
<svg version="1.1" id="Layer_1" xmlns="http://www.w3.org/2000/svg" xmlns:xlink="http://www.w3.org/1999/xlink" x="0px" y="0px"
	 viewBox="0 0 36 40" style="enable-background:new 0 0 36 40;" xml:space="preserve">
<style type="text/css">
	.st0{fill:#FFFFFF;}
</style>
<title>Fill 18</title>
<desc>Created with Sketch.</desc>
<g id="Mobile">
	<g id="_x32_-About" transform="translate(-170.000000, -1804.000000)">
		<path id="Fill-18" class="st0" d="M201.9,1808h-8.3c-0.8-2.3-3-4-5.6-4c-2.6,0-4.8,1.7-5.6,4H174c-2.2,0-4,1.8-4,4v27.9
			c0,2.2,1.8,4,4,4h27.9c2.2,0,4-1.8,4-4V1812C205.9,1809.8,204.1,1808,201.9,1808L201.9,1808z M188,1808c1.1,0,2,0.9,2,2
			s-0.9,2-2,2c-1.1,0-2-0.9-2-2S186.9,1808,188,1808L188,1808z M188,1816c3.3,0,6,2.7,6,6c0,3.3-2.7,6-6,6c-3.3,0-6-2.7-6-6
			C182,1818.6,184.6,1816,188,1816L188,1816z M199.9,1839.9H176v-2.8c0-4,8-6.2,12-6.2c4,0,12,2.2,12,6.2V1839.9L199.9,1839.9z"/>
	</g>
</g>
</svg>
