<?xml version="1.0" encoding="UTF-8" standalone="no"?>
<svg width="32px" height="38px" viewBox="0 0 32 38" version="1.1" xmlns="http://www.w3.org/2000/svg" xmlns:xlink="http://www.w3.org/1999/xlink">
    <!-- Generator: Sketch 39.1 (31720) - http://www.bohemiancoding.com/sketch -->
    <title>Fill 268</title>
    <desc>Created with Sketch.</desc>
    <defs></defs>
    <g id="Mobile" stroke="none" stroke-width="1" fill="none" fill-rule="evenodd">
        <g id="7-Contact-Us-" transform="translate(-172.000000, -949.000000)" fill="#4A4A4A">
            <path d="M172,977 C172,978.76 172.78,980.34 174,981.44 L174,985 C174,986.1 174.9,987 176,987 L178,987 C179.1,987 180,986.1 180,985 L180,983 L196,983 L196,985 C196,986.1 196.9,987 198,987 L200,987 C201.1,987 202,986.1 202,985 L202,981.44 C203.22,980.34 204,978.76 204,977 L204,957 C204,950 196.84,949 188,949 C179.16,949 172,950 172,957 L172,977 L172,977 Z M179,979 C177.34,979 176,977.66 176,976 C176,974.34 177.34,973 179,973 C180.66,973 182,974.34 182,976 C182,977.66 180.66,979 179,979 L179,979 Z M197,979 C195.34,979 194,977.66 194,976 C194,974.34 195.34,973 197,973 C198.66,973 200,974.34 200,976 C200,977.66 198.66,979 197,979 L197,979 Z M176,957 L200,957 L200,967 L176,967 L176,957 Z" id="Fill-268"></path>
        </g>
    </g>
</svg>