<?xml version="1.0" encoding="utf-8"?>
<!-- Generator: Adobe Illustrator 20.0.0, SVG Export Plug-In . SVG Version: 6.00 Build 0)  -->
<svg version="1.1" id="Layer_1" xmlns="http://www.w3.org/2000/svg" xmlns:xlink="http://www.w3.org/1999/xlink" x="0px" y="0px"
	 viewBox="0 0 338.5 80" style="enable-background:new 0 0 338.5 80;" xml:space="preserve">
<style type="text/css">
	.st0{fill:#4A4A4A;}
</style>
<title>Group</title>
<desc>Created with Sketch.</desc>
<g id="Page-1">
	<g id="Letter" transform="translate(-138.000000, -705.000000)">
		<g id="Group" transform="translate(138.000000, 705.000000)">
			<path id="Fill-17" class="st0" d="M45,7.6H33.4C32.3,4.3,29.2,2,25.6,2s-6.7,2.3-7.8,5.6H6.2c-3.1,0-5.6,2.5-5.6,5.6V52
				c0,3.1,2.5,5.6,5.6,5.6H45c3.1,0,5.6-2.5,5.6-5.6V13.1C50.6,10.1,48.1,7.6,45,7.6L45,7.6z M25.6,7.6c1.5,0,2.8,1.3,2.8,2.8
				s-1.3,2.8-2.8,2.8c-1.5,0-2.8-1.2-2.8-2.8S24.1,7.6,25.6,7.6L25.6,7.6z M11.7,40.9h19.4v5.6H11.7V40.9z M11.7,29.8h27.8v5.6H11.7
				V29.8z M11.7,18.7h27.8v5.6H11.7V18.7z"/>
			<g id="Group-2" transform="translate(107.000000, 4.000000)">
				<path id="Fill-288" class="st0" d="M61.4,45.9v-3.1c3.3,0,6.1-2.8,6.1-6.1l0-30.6c0-3.4-2.7-6.1-6.1-6.1H12.8
					C9.4,0,6.7,2.8,6.7,6.1v30.6c0,3.4,2.7,6.1,6.1,6.1v3.1H0.6V52h73v-6.1H61.4L61.4,45.9z M12.8,6.1h48.7v30.6H12.8V6.1z"/>
				<polygon id="Fill-157" class="st0" points="27.5,21.1 25.4,23.2 33.6,31.4 51.1,13.8 49,11.7 33.6,27.2 				"/>
			</g>
			<path id="Shape" class="st0" d="M263.3,0c-16.4,0-29.7,13.3-29.7,29.7s13.3,29.7,29.7,29.7c16.4,0,29.7-13.3,29.7-29.7
				S279.7,0,263.3,0L263.3,0z M263.3,53.4c-13.1,0-23.8-10.6-23.8-23.8s10.6-23.8,23.8-23.8c13.1,0,23.8,10.6,23.8,23.8
				S276.4,53.4,263.3,53.4L263.3,53.4z M264.8,14.8h-4.5v17.8l15.6,9.4l2.2-3.7l-13.4-7.9V14.8z"/>
			<polygon id="Shape_1_" class="st0" points="83.6,30 69.6,30 69.6,34 83.6,34 83.6,40 91.6,32 83.6,24 			"/>
			<polygon id="Shape-Copy" class="st0" points="208.6,30 194.6,30 194.6,34 208.6,34 208.6,40 216.6,32 208.6,24 			"/>
		</g>
	</g>
</g>
<g>
	<path class="st0" d="M5.6,68.5h5v1.2H7v2.1h3.4V73H7v3.3H5.6V68.5z"/>
	<path class="st0" d="M11.5,69.2c0-0.2,0.1-0.4,0.2-0.6c0.2-0.2,0.4-0.2,0.6-0.2c0.2,0,0.4,0.1,0.6,0.2c0.2,0.2,0.2,0.3,0.2,0.6
		c0,0.2-0.1,0.4-0.2,0.6c-0.2,0.2-0.4,0.2-0.6,0.2c-0.2,0-0.4-0.1-0.6-0.2C11.6,69.6,11.5,69.4,11.5,69.2z M11.7,71H13v5.3h-1.3V71z
		"/>
	<path class="st0" d="M14.6,67.9h1.3v8.3h-1.3V67.9z"/>
	<path class="st0" d="M17.6,67.9h1.3v8.3h-1.3V67.9z"/>
	<path class="st0" d="M23.3,68.5h5v1.2h-3.6v2.1h3.4V73h-3.4v3.3h-1.4V68.5z"/>
	<path class="st0" d="M28.7,73.6c0-0.4,0.1-0.8,0.2-1.1s0.4-0.6,0.6-0.9s0.6-0.4,0.9-0.6c0.4-0.1,0.7-0.2,1.1-0.2s0.8,0.1,1.1,0.2
		c0.4,0.1,0.7,0.3,0.9,0.6c0.3,0.2,0.5,0.5,0.6,0.9s0.2,0.7,0.2,1.1s-0.1,0.8-0.2,1.1s-0.4,0.6-0.6,0.9c-0.3,0.2-0.6,0.4-0.9,0.6
		c-0.4,0.1-0.7,0.2-1.1,0.2s-0.8-0.1-1.1-0.2c-0.4-0.1-0.7-0.3-0.9-0.6c-0.3-0.2-0.5-0.5-0.6-0.9S28.7,74,28.7,73.6z M30,73.6
		c0,0.2,0,0.4,0.1,0.6s0.2,0.4,0.3,0.5c0.1,0.2,0.3,0.3,0.5,0.4c0.2,0.1,0.4,0.2,0.7,0.2s0.5-0.1,0.7-0.2c0.2-0.1,0.3-0.2,0.5-0.4
		c0.1-0.2,0.2-0.3,0.3-0.5c0.1-0.2,0.1-0.4,0.1-0.6s0-0.4-0.1-0.6c-0.1-0.2-0.2-0.4-0.3-0.5c-0.1-0.2-0.3-0.3-0.5-0.4
		c-0.2-0.1-0.4-0.1-0.7-0.1s-0.5,0-0.7,0.1c-0.2,0.1-0.3,0.2-0.5,0.4c-0.1,0.2-0.2,0.3-0.3,0.5C30.1,73.2,30,73.4,30,73.6z"/>
	<path class="st0" d="M35.7,71H37v0.9h0c0.1-0.3,0.4-0.6,0.6-0.7c0.3-0.2,0.6-0.3,0.9-0.3c0.1,0,0.1,0,0.2,0c0.1,0,0.1,0,0.2,0v1.2
		c-0.1,0-0.2,0-0.2,0c-0.1,0-0.1,0-0.2,0c-0.3,0-0.5,0.1-0.7,0.2c-0.2,0.1-0.3,0.2-0.4,0.4c-0.1,0.2-0.2,0.3-0.2,0.5
		S37,73.3,37,73.4v2.8h-1.3V71z"/>
	<path class="st0" d="M46,70.8c0.3,0,0.6,0.1,0.9,0.2c0.2,0.1,0.4,0.3,0.6,0.5c0.2,0.2,0.3,0.4,0.3,0.7c0.1,0.3,0.1,0.5,0.1,0.8v3.3
		h-1.3v-2.9c0-0.2,0-0.3,0-0.5c0-0.2-0.1-0.3-0.1-0.5s-0.2-0.2-0.3-0.3c-0.1-0.1-0.3-0.1-0.5-0.1c-0.2,0-0.4,0-0.5,0.1
		c-0.1,0.1-0.3,0.2-0.4,0.3c-0.1,0.1-0.2,0.3-0.2,0.5c0,0.2-0.1,0.3-0.1,0.5v2.9h-1.3v-3.2c0-0.3-0.1-0.6-0.2-0.8
		c-0.2-0.2-0.4-0.3-0.7-0.3c-0.2,0-0.4,0-0.5,0.1c-0.1,0.1-0.3,0.2-0.4,0.3c-0.1,0.1-0.2,0.3-0.2,0.5c0,0.2-0.1,0.3-0.1,0.5v2.9
		h-1.3V71H41v0.8h0c0.1-0.1,0.1-0.3,0.2-0.4c0.1-0.1,0.2-0.2,0.4-0.3c0.1-0.1,0.3-0.2,0.5-0.2s0.4-0.1,0.6-0.1c0.4,0,0.8,0.1,1,0.3
		c0.3,0.2,0.5,0.4,0.6,0.7c0.2-0.3,0.4-0.6,0.7-0.7C45.3,70.9,45.6,70.8,46,70.8z"/>
</g>
<g>
	<path class="st0" d="M116.2,70.3c-0.1-0.2-0.4-0.3-0.6-0.5c-0.3-0.1-0.5-0.2-0.8-0.2c-0.2,0-0.3,0-0.5,0.1c-0.2,0-0.3,0.1-0.4,0.2
		c-0.1,0.1-0.2,0.2-0.3,0.3c-0.1,0.1-0.1,0.3-0.1,0.5c0,0.2,0,0.3,0.1,0.5c0.1,0.1,0.2,0.2,0.3,0.3s0.3,0.2,0.5,0.2
		c0.2,0.1,0.4,0.1,0.6,0.2c0.2,0.1,0.5,0.2,0.8,0.3c0.3,0.1,0.5,0.2,0.7,0.4s0.4,0.4,0.5,0.6c0.1,0.3,0.2,0.6,0.2,1
		c0,0.4-0.1,0.8-0.2,1.1c-0.2,0.3-0.4,0.6-0.6,0.8s-0.6,0.4-0.9,0.5s-0.7,0.2-1.1,0.2c-0.5,0-1-0.1-1.5-0.3
		c-0.5-0.2-0.9-0.5-1.2-0.8l1-0.9c0.2,0.3,0.4,0.5,0.8,0.6c0.3,0.2,0.6,0.2,0.9,0.2c0.2,0,0.3,0,0.5-0.1c0.2,0,0.3-0.1,0.5-0.2
		c0.1-0.1,0.2-0.2,0.3-0.4c0.1-0.1,0.1-0.3,0.1-0.5c0-0.2,0-0.4-0.1-0.5s-0.2-0.3-0.4-0.4c-0.2-0.1-0.4-0.2-0.6-0.3
		c-0.2-0.1-0.5-0.2-0.7-0.2c-0.2-0.1-0.5-0.2-0.7-0.3s-0.4-0.2-0.6-0.4c-0.2-0.2-0.3-0.4-0.5-0.6c-0.1-0.2-0.2-0.6-0.2-0.9
		c0-0.4,0.1-0.7,0.2-1c0.2-0.3,0.4-0.5,0.6-0.7c0.3-0.2,0.6-0.3,0.9-0.4c0.3-0.1,0.7-0.1,1-0.1c0.4,0,0.8,0.1,1.2,0.2
		c0.4,0.1,0.8,0.3,1.1,0.6L116.2,70.3z"/>
	<path class="st0" d="M123.3,76.5h-1.3v-0.8h0c-0.1,0.3-0.3,0.5-0.6,0.7c-0.3,0.2-0.6,0.3-1,0.3c-0.3,0-0.6-0.1-0.9-0.2
		c-0.2-0.1-0.4-0.3-0.6-0.5s-0.3-0.4-0.3-0.7c-0.1-0.3-0.1-0.5-0.1-0.8v-3.3h1.3v2.9c0,0.2,0,0.3,0,0.5s0.1,0.3,0.1,0.5
		c0.1,0.1,0.2,0.2,0.3,0.3s0.3,0.1,0.5,0.1c0.2,0,0.4,0,0.5-0.1s0.3-0.2,0.4-0.3c0.1-0.1,0.2-0.3,0.2-0.5c0.1-0.2,0.1-0.3,0.1-0.5
		v-2.9h1.3V76.5z"/>
	<path class="st0" d="M126.2,68.2v3.7h0c0.1-0.1,0.2-0.2,0.3-0.3c0.1-0.1,0.2-0.2,0.4-0.3c0.1-0.1,0.3-0.1,0.5-0.2
		c0.2-0.1,0.4-0.1,0.6-0.1c0.4,0,0.7,0.1,1,0.2c0.3,0.1,0.6,0.3,0.8,0.6c0.2,0.2,0.4,0.5,0.5,0.9s0.2,0.7,0.2,1.1s-0.1,0.8-0.2,1.1
		c-0.1,0.3-0.3,0.6-0.5,0.9c-0.2,0.3-0.5,0.5-0.8,0.6c-0.3,0.2-0.7,0.2-1.1,0.2c-0.4,0-0.7-0.1-1.1-0.2s-0.6-0.4-0.8-0.7h0v0.8h-1.3
		v-8.3H126.2z M129.3,73.8c0-0.2,0-0.4-0.1-0.6c-0.1-0.2-0.2-0.4-0.3-0.5c-0.1-0.2-0.3-0.3-0.5-0.4c-0.2-0.1-0.4-0.1-0.7-0.1
		c-0.2,0-0.5,0.1-0.6,0.2c-0.2,0.1-0.4,0.2-0.5,0.4s-0.2,0.3-0.3,0.5s-0.1,0.4-0.1,0.6c0,0.2,0,0.4,0.1,0.6c0.1,0.2,0.2,0.4,0.3,0.5
		c0.1,0.2,0.3,0.3,0.5,0.4c0.2,0.1,0.4,0.1,0.6,0.1c0.3,0,0.5-0.1,0.7-0.2c0.2-0.1,0.3-0.2,0.5-0.4c0.1-0.2,0.2-0.3,0.3-0.5
		S129.3,74,129.3,73.8z"/>
	<path class="st0" d="M138.2,71.1c0.3,0,0.6,0.1,0.9,0.2c0.2,0.1,0.4,0.3,0.6,0.5c0.2,0.2,0.3,0.4,0.3,0.7c0.1,0.3,0.1,0.5,0.1,0.8
		v3.3h-1.3v-2.9c0-0.2,0-0.3,0-0.5c0-0.2-0.1-0.3-0.1-0.5s-0.2-0.2-0.3-0.3c-0.1-0.1-0.3-0.1-0.5-0.1c-0.2,0-0.4,0-0.5,0.1
		c-0.1,0.1-0.3,0.2-0.4,0.3c-0.1,0.1-0.2,0.3-0.2,0.5c0,0.2-0.1,0.3-0.1,0.5v2.9h-1.3v-3.2c0-0.3-0.1-0.6-0.2-0.8
		c-0.2-0.2-0.4-0.3-0.7-0.3c-0.2,0-0.4,0-0.5,0.1c-0.1,0.1-0.3,0.2-0.4,0.3c-0.1,0.1-0.2,0.3-0.2,0.5c0,0.2-0.1,0.3-0.1,0.5v2.9
		h-1.3v-5.3h1.3v0.8h0c0.1-0.1,0.1-0.3,0.2-0.4c0.1-0.1,0.2-0.2,0.4-0.3c0.1-0.1,0.3-0.2,0.5-0.2s0.4-0.1,0.6-0.1
		c0.4,0,0.8,0.1,1,0.3c0.3,0.2,0.5,0.4,0.6,0.7c0.2-0.3,0.4-0.6,0.7-0.7C137.5,71.2,137.8,71.1,138.2,71.1z"/>
	<path class="st0" d="M141.5,69.4c0-0.2,0.1-0.4,0.2-0.6c0.2-0.2,0.4-0.2,0.6-0.2c0.2,0,0.4,0.1,0.6,0.2c0.2,0.2,0.2,0.3,0.2,0.6
		c0,0.2-0.1,0.4-0.2,0.6c-0.2,0.2-0.4,0.2-0.6,0.2c-0.2,0-0.4-0.1-0.6-0.2C141.6,69.8,141.5,69.6,141.5,69.4z M141.7,71.2h1.3v5.3
		h-1.3V71.2z"/>
	<path class="st0" d="M143.9,72.3v-1.1h0.9v-1.5h1.3v1.5h1.3v1.1h-1.3v2.5c0,0.2,0,0.4,0.1,0.6c0.1,0.2,0.3,0.2,0.6,0.2
		c0.1,0,0.2,0,0.3,0c0.1,0,0.2,0,0.3-0.1l0,1c-0.1,0-0.3,0.1-0.4,0.1s-0.3,0-0.5,0c-0.4,0-0.6,0-0.9-0.1c-0.2-0.1-0.4-0.2-0.5-0.4
		c-0.1-0.2-0.2-0.4-0.3-0.6c0-0.2-0.1-0.5-0.1-0.7v-2.5H143.9z"/>
	<path class="st0" d="M151.2,68.7h5v1.2h-3.6v2.1h3.4v1.2h-3.4v3.3h-1.4V68.7z"/>
	<path class="st0" d="M156.6,73.8c0-0.4,0.1-0.8,0.2-1.1s0.4-0.6,0.6-0.9s0.6-0.4,0.9-0.6c0.4-0.1,0.7-0.2,1.1-0.2s0.8,0.1,1.1,0.2
		c0.4,0.1,0.7,0.3,0.9,0.6c0.3,0.2,0.5,0.5,0.6,0.9s0.2,0.7,0.2,1.1s-0.1,0.8-0.2,1.1s-0.4,0.6-0.6,0.9c-0.3,0.2-0.6,0.4-0.9,0.6
		c-0.4,0.1-0.7,0.2-1.1,0.2s-0.8-0.1-1.1-0.2c-0.4-0.1-0.7-0.3-0.9-0.6c-0.3-0.2-0.5-0.5-0.6-0.9S156.6,74.3,156.6,73.8z
		 M157.9,73.8c0,0.2,0,0.4,0.1,0.6s0.2,0.4,0.3,0.5c0.1,0.2,0.3,0.3,0.5,0.4c0.2,0.1,0.4,0.2,0.7,0.2s0.5-0.1,0.7-0.2
		c0.2-0.1,0.3-0.2,0.5-0.4c0.1-0.2,0.2-0.3,0.3-0.5s0.1-0.4,0.1-0.6s0-0.4-0.1-0.6c-0.1-0.2-0.2-0.4-0.3-0.5
		c-0.1-0.2-0.3-0.3-0.5-0.4c-0.2-0.1-0.4-0.1-0.7-0.1s-0.5,0-0.7,0.1c-0.2,0.1-0.3,0.2-0.5,0.4c-0.1,0.2-0.2,0.3-0.3,0.5
		C158,73.4,157.9,73.6,157.9,73.8z"/>
	<path class="st0" d="M163.6,71.2h1.3v0.9h0c0.1-0.3,0.4-0.6,0.6-0.7c0.3-0.2,0.6-0.3,0.9-0.3c0.1,0,0.1,0,0.2,0c0.1,0,0.1,0,0.2,0
		v1.2c-0.1,0-0.2,0-0.2,0c-0.1,0-0.1,0-0.2,0c-0.3,0-0.5,0.1-0.7,0.2s-0.3,0.2-0.4,0.4c-0.1,0.2-0.2,0.3-0.2,0.5
		c0,0.2-0.1,0.3-0.1,0.4v2.8h-1.3V71.2z"/>
	<path class="st0" d="M173.9,71.1c0.3,0,0.6,0.1,0.9,0.2c0.2,0.1,0.4,0.3,0.6,0.5c0.2,0.2,0.3,0.4,0.3,0.7c0.1,0.3,0.1,0.5,0.1,0.8
		v3.3h-1.3v-2.9c0-0.2,0-0.3,0-0.5c0-0.2-0.1-0.3-0.1-0.5c-0.1-0.1-0.2-0.2-0.3-0.3s-0.3-0.1-0.5-0.1c-0.2,0-0.4,0-0.5,0.1
		s-0.3,0.2-0.4,0.3c-0.1,0.1-0.2,0.3-0.2,0.5c0,0.2-0.1,0.3-0.1,0.5v2.9h-1.3v-3.2c0-0.3-0.1-0.6-0.2-0.8c-0.2-0.2-0.4-0.3-0.7-0.3
		c-0.2,0-0.4,0-0.5,0.1c-0.1,0.1-0.3,0.2-0.4,0.3c-0.1,0.1-0.2,0.3-0.2,0.5c0,0.2-0.1,0.3-0.1,0.5v2.9h-1.3v-5.3h1.3v0.8h0
		c0.1-0.1,0.1-0.3,0.2-0.4c0.1-0.1,0.2-0.2,0.4-0.3c0.1-0.1,0.3-0.2,0.5-0.2s0.4-0.1,0.6-0.1c0.4,0,0.8,0.1,1,0.3
		c0.3,0.2,0.5,0.4,0.6,0.7c0.2-0.3,0.4-0.6,0.7-0.7C173.2,71.2,173.5,71.1,173.9,71.1z"/>
</g>
<g>
	<path class="st0" d="M218.7,68.7h1.5l1.5,5.7h0l1.7-5.7h1.4l1.7,5.7h0l1.5-5.7h1.5l-2.3,7.8H226l-1.8-5.8h0l-1.8,5.8H221
		L218.7,68.7z"/>
	<path class="st0" d="M235.1,73.9c0,0.1,0,0.1,0,0.2c0,0.1,0,0.1,0,0.2h-4c0,0.2,0.1,0.4,0.1,0.5c0.1,0.2,0.2,0.3,0.3,0.4
		c0.1,0.1,0.3,0.2,0.5,0.3c0.2,0.1,0.4,0.1,0.5,0.1c0.3,0,0.6-0.1,0.8-0.2s0.4-0.3,0.6-0.5l0.9,0.7c-0.5,0.7-1.3,1.1-2.3,1.1
		c-0.4,0-0.8-0.1-1.1-0.2c-0.3-0.1-0.6-0.3-0.9-0.5s-0.5-0.5-0.6-0.9s-0.2-0.7-0.2-1.2c0-0.4,0.1-0.8,0.2-1.2
		c0.1-0.3,0.3-0.6,0.6-0.9c0.2-0.2,0.5-0.4,0.9-0.6c0.3-0.1,0.7-0.2,1.1-0.2c0.4,0,0.7,0.1,1,0.2c0.3,0.1,0.6,0.3,0.8,0.5
		s0.4,0.5,0.5,0.9C235,73,235.1,73.4,235.1,73.9z M233.8,73.3c0-0.2,0-0.3-0.1-0.5c0-0.2-0.1-0.3-0.2-0.4s-0.2-0.2-0.4-0.3
		c-0.2-0.1-0.3-0.1-0.6-0.1c-0.4,0-0.7,0.1-1,0.4c-0.3,0.2-0.4,0.5-0.5,0.9H233.8z"/>
	<path class="st0" d="M238.4,71.2h1.4l1.1,3.8h0l1.1-3.8h1.4l1.1,3.8h0l1.1-3.8h1.4l-1.8,5.3H244l-1.2-3.7h0l-1.2,3.7h-1.3
		L238.4,71.2z"/>
	<path class="st0" d="M247.8,69.4c0-0.2,0.1-0.4,0.2-0.6c0.2-0.2,0.4-0.2,0.6-0.2c0.2,0,0.4,0.1,0.6,0.2c0.2,0.2,0.2,0.3,0.2,0.6
		c0,0.2-0.1,0.4-0.2,0.6c-0.2,0.2-0.4,0.2-0.6,0.2c-0.2,0-0.4-0.1-0.6-0.2C247.9,69.8,247.8,69.6,247.8,69.4z M248,71.2h1.3v5.3H248
		V71.2z"/>
	<path class="st0" d="M250.9,68.2h1.3v8.3h-1.3V68.2z"/>
	<path class="st0" d="M253.9,68.2h1.3v8.3h-1.3V68.2z"/>
	<path class="st0" d="M263.2,72.7c-0.1-0.1-0.3-0.3-0.5-0.4c-0.2-0.1-0.4-0.1-0.6-0.1c-0.2,0-0.5,0-0.6,0.1
		c-0.2,0.1-0.3,0.2-0.5,0.4s-0.2,0.3-0.3,0.5c-0.1,0.2-0.1,0.4-0.1,0.6c0,0.2,0,0.4,0.1,0.6c0.1,0.2,0.2,0.4,0.3,0.5
		c0.1,0.2,0.3,0.3,0.5,0.4c0.2,0.1,0.4,0.1,0.7,0.1c0.2,0,0.4,0,0.6-0.1c0.2-0.1,0.4-0.2,0.5-0.4l0.8,0.8c-0.2,0.2-0.5,0.4-0.8,0.5
		c-0.3,0.1-0.7,0.2-1.1,0.2c-0.4,0-0.8-0.1-1.1-0.2c-0.3-0.1-0.7-0.3-0.9-0.5c-0.3-0.2-0.5-0.5-0.6-0.9s-0.2-0.7-0.2-1.2
		c0-0.4,0.1-0.8,0.2-1.2s0.4-0.6,0.6-0.9s0.6-0.4,0.9-0.6c0.3-0.1,0.7-0.2,1.1-0.2s0.8,0.1,1.1,0.2c0.4,0.1,0.7,0.3,0.9,0.6
		L263.2,72.7z"/>
	<path class="st0" d="M264.6,73.8c0-0.4,0.1-0.8,0.2-1.1s0.4-0.6,0.6-0.9s0.6-0.4,0.9-0.6c0.4-0.1,0.7-0.2,1.1-0.2
		c0.4,0,0.8,0.1,1.1,0.2c0.4,0.1,0.7,0.3,0.9,0.6c0.3,0.2,0.5,0.5,0.6,0.9s0.2,0.7,0.2,1.1s-0.1,0.8-0.2,1.1s-0.4,0.6-0.6,0.9
		c-0.3,0.2-0.6,0.4-0.9,0.6c-0.4,0.1-0.7,0.2-1.1,0.2c-0.4,0-0.8-0.1-1.1-0.2c-0.4-0.1-0.7-0.3-0.9-0.6c-0.3-0.2-0.5-0.5-0.6-0.9
		S264.6,74.3,264.6,73.8z M266,73.8c0,0.2,0,0.4,0.1,0.6s0.2,0.4,0.3,0.5s0.3,0.3,0.5,0.4c0.2,0.1,0.4,0.2,0.7,0.2
		c0.3,0,0.5-0.1,0.7-0.2s0.3-0.2,0.5-0.4c0.1-0.2,0.2-0.3,0.3-0.5c0.1-0.2,0.1-0.4,0.1-0.6s0-0.4-0.1-0.6c-0.1-0.2-0.2-0.4-0.3-0.5
		c-0.1-0.2-0.3-0.3-0.5-0.4c-0.2-0.1-0.4-0.1-0.7-0.1c-0.3,0-0.5,0-0.7,0.1c-0.2,0.1-0.3,0.2-0.5,0.4c-0.1,0.2-0.2,0.3-0.3,0.5
		C266,73.4,266,73.6,266,73.8z"/>
	<path class="st0" d="M271.6,71.2h1.3v0.8h0c0.1-0.3,0.3-0.5,0.6-0.7c0.3-0.2,0.6-0.3,1-0.3c0.3,0,0.6,0.1,0.9,0.2
		c0.2,0.1,0.4,0.3,0.6,0.5c0.2,0.2,0.3,0.4,0.3,0.7s0.1,0.5,0.1,0.8v3.3h-1.3v-2.9c0-0.2,0-0.3,0-0.5c0-0.2-0.1-0.3-0.1-0.5
		c-0.1-0.1-0.2-0.2-0.3-0.3c-0.1-0.1-0.3-0.1-0.5-0.1s-0.4,0-0.5,0.1c-0.2,0.1-0.3,0.2-0.4,0.3c-0.1,0.1-0.2,0.3-0.2,0.5
		c-0.1,0.2-0.1,0.3-0.1,0.5v2.9h-1.3V71.2z"/>
	<path class="st0" d="M277.3,72.3v-1.1h0.9v-1.5h1.3v1.5h1.3v1.1h-1.3v2.5c0,0.2,0,0.4,0.1,0.6c0.1,0.2,0.3,0.2,0.6,0.2
		c0.1,0,0.2,0,0.3,0s0.2,0,0.3-0.1l0,1c-0.1,0-0.3,0.1-0.4,0.1c-0.2,0-0.3,0-0.5,0c-0.4,0-0.6,0-0.9-0.1c-0.2-0.1-0.4-0.2-0.5-0.4
		c-0.1-0.2-0.2-0.4-0.3-0.6c0-0.2-0.1-0.5-0.1-0.7v-2.5H277.3z"/>
	<path class="st0" d="M285.1,75.8L285.1,75.8c-0.2,0.2-0.4,0.4-0.7,0.6c-0.3,0.2-0.6,0.2-1,0.2c-0.2,0-0.4,0-0.7-0.1
		c-0.2-0.1-0.4-0.1-0.6-0.3c-0.2-0.1-0.4-0.3-0.5-0.5c-0.1-0.2-0.2-0.5-0.2-0.8c0-0.4,0.1-0.7,0.3-0.9c0.2-0.2,0.5-0.4,0.9-0.5
		c0.4-0.1,0.7-0.2,1.2-0.2c0.4,0,0.8-0.1,1.3-0.1v-0.1c0-0.3-0.1-0.6-0.4-0.7c-0.2-0.2-0.5-0.2-0.9-0.2c-0.3,0-0.5,0.1-0.8,0.2
		s-0.5,0.3-0.6,0.4l-0.7-0.8c0.3-0.3,0.6-0.5,1-0.6c0.4-0.1,0.8-0.2,1.2-0.2c0.5,0,0.9,0.1,1.2,0.2c0.3,0.1,0.5,0.3,0.7,0.5
		s0.3,0.5,0.4,0.7c0.1,0.3,0.1,0.5,0.1,0.8v3.2h-1.2V75.8z M285,74.1h-0.3c-0.2,0-0.4,0-0.7,0c-0.2,0-0.5,0.1-0.6,0.1
		c-0.2,0.1-0.4,0.2-0.5,0.3c-0.1,0.1-0.2,0.3-0.2,0.5c0,0.1,0,0.2,0.1,0.3c0.1,0.1,0.1,0.2,0.2,0.2c0.1,0.1,0.2,0.1,0.3,0.1
		c0.1,0,0.2,0,0.3,0c0.5,0,0.8-0.1,1-0.4c0.2-0.2,0.4-0.6,0.4-1V74.1z"/>
	<path class="st0" d="M291.4,72.7c-0.1-0.1-0.3-0.3-0.5-0.4c-0.2-0.1-0.4-0.1-0.6-0.1c-0.2,0-0.5,0-0.6,0.1
		c-0.2,0.1-0.3,0.2-0.5,0.4s-0.2,0.3-0.3,0.5c-0.1,0.2-0.1,0.4-0.1,0.6c0,0.2,0,0.4,0.1,0.6c0.1,0.2,0.2,0.4,0.3,0.5
		c0.1,0.2,0.3,0.3,0.5,0.4c0.2,0.1,0.4,0.1,0.7,0.1c0.2,0,0.4,0,0.6-0.1c0.2-0.1,0.4-0.2,0.5-0.4l0.8,0.8c-0.2,0.2-0.5,0.4-0.8,0.5
		c-0.3,0.1-0.7,0.2-1.1,0.2c-0.4,0-0.8-0.1-1.1-0.2c-0.3-0.1-0.7-0.3-0.9-0.5c-0.3-0.2-0.5-0.5-0.6-0.9s-0.2-0.7-0.2-1.2
		c0-0.4,0.1-0.8,0.2-1.2s0.4-0.6,0.6-0.9s0.6-0.4,0.9-0.6c0.3-0.1,0.7-0.2,1.1-0.2s0.8,0.1,1.1,0.2c0.4,0.1,0.7,0.3,0.9,0.6
		L291.4,72.7z"/>
	<path class="st0" d="M292.4,72.3v-1.1h0.9v-1.5h1.3v1.5h1.3v1.1h-1.3v2.5c0,0.2,0,0.4,0.1,0.6c0.1,0.2,0.3,0.2,0.6,0.2
		c0.1,0,0.2,0,0.3,0s0.2,0,0.3-0.1l0,1c-0.1,0-0.3,0.1-0.4,0.1s-0.3,0-0.5,0c-0.4,0-0.6,0-0.9-0.1c-0.2-0.1-0.4-0.2-0.5-0.4
		c-0.1-0.2-0.2-0.4-0.3-0.6s-0.1-0.5-0.1-0.7v-2.5H292.4z"/>
	<path class="st0" d="M298.9,71.2h1.5l1.5,3.8h0l1.3-3.8h1.4l-2.5,6.4c-0.1,0.2-0.2,0.5-0.3,0.6c-0.1,0.2-0.2,0.3-0.4,0.5
		c-0.2,0.1-0.3,0.2-0.5,0.3s-0.5,0.1-0.8,0.1c-0.1,0-0.2,0-0.3,0c-0.1,0-0.2,0-0.3-0.1l0.1-1.1c0.1,0,0.2,0,0.3,0.1s0.2,0,0.2,0
		c0.1,0,0.3,0,0.4,0c0.1,0,0.2-0.1,0.2-0.2c0.1-0.1,0.1-0.2,0.2-0.3c0.1-0.1,0.1-0.2,0.2-0.4l0.3-0.7L298.9,71.2z"/>
	<path class="st0" d="M305,73.8c0-0.4,0.1-0.8,0.2-1.1s0.4-0.6,0.6-0.9s0.6-0.4,0.9-0.6c0.4-0.1,0.7-0.2,1.1-0.2
		c0.4,0,0.8,0.1,1.1,0.2c0.4,0.1,0.7,0.3,0.9,0.6s0.5,0.5,0.6,0.9s0.2,0.7,0.2,1.1s-0.1,0.8-0.2,1.1s-0.4,0.6-0.6,0.9
		c-0.3,0.2-0.6,0.4-0.9,0.6c-0.4,0.1-0.7,0.2-1.1,0.2c-0.4,0-0.8-0.1-1.1-0.2c-0.4-0.1-0.7-0.3-0.9-0.6c-0.3-0.2-0.5-0.5-0.6-0.9
		S305,74.3,305,73.8z M306.4,73.8c0,0.2,0,0.4,0.1,0.6s0.2,0.4,0.3,0.5c0.1,0.2,0.3,0.3,0.5,0.4s0.4,0.2,0.7,0.2
		c0.3,0,0.5-0.1,0.7-0.2c0.2-0.1,0.3-0.2,0.5-0.4s0.2-0.3,0.3-0.5s0.1-0.4,0.1-0.6s0-0.4-0.1-0.6c-0.1-0.2-0.2-0.4-0.3-0.5
		c-0.1-0.2-0.3-0.3-0.5-0.4c-0.2-0.1-0.4-0.1-0.7-0.1c-0.3,0-0.5,0-0.7,0.1c-0.2,0.1-0.3,0.2-0.5,0.4c-0.1,0.2-0.2,0.3-0.3,0.5
		C306.4,73.4,306.4,73.6,306.4,73.8z"/>
	<path class="st0" d="M316.9,76.5h-1.3v-0.8h0c-0.1,0.3-0.3,0.5-0.6,0.7c-0.3,0.2-0.6,0.3-1,0.3c-0.3,0-0.6-0.1-0.9-0.2
		c-0.2-0.1-0.4-0.3-0.6-0.5c-0.2-0.2-0.3-0.4-0.3-0.7c-0.1-0.3-0.1-0.5-0.1-0.8v-3.3h1.3v2.9c0,0.2,0,0.3,0,0.5
		c0,0.2,0.1,0.3,0.1,0.5c0.1,0.1,0.2,0.2,0.3,0.3c0.1,0.1,0.3,0.1,0.5,0.1c0.2,0,0.4,0,0.5-0.1c0.2-0.1,0.3-0.2,0.4-0.3
		c0.1-0.1,0.2-0.3,0.2-0.5c0.1-0.2,0.1-0.3,0.1-0.5v-2.9h1.3V76.5z"/>
</g>
</svg>
