<?xml version="1.0" encoding="UTF-8" standalone="no"?>
<svg width="36px" height="36px" viewBox="0 0 36 36" version="1.1" xmlns="http://www.w3.org/2000/svg" xmlns:xlink="http://www.w3.org/1999/xlink">
    <!-- Generator: Sketch 39.1 (31720) - http://www.bohemiancoding.com/sketch -->
    <title>Fill 362</title>
    <desc>Created with Sketch.</desc>
    <defs></defs>
    <g id="Mobile" stroke="none" stroke-width="1" fill="none" fill-rule="evenodd">
        <g id="6-Donate" transform="translate(-32.000000, -2165.000000)" fill="#4A4A4A">
            <path d="M50,2193 L54,2193 L54,2173 L46,2173 L46,2177 L50,2177 L50,2193 L50,2193 Z M64,2165 L36,2165 C33.8,2165 32,2166.8 32,2169 L32,2197 C32,2199.2 33.8,2201 36,2201 L64,2201 C66.2,2201 68,2199.2 68,2197 L68,2169 C68,2166.8 66.2,2165 64,2165 L64,2165 Z M36,2169 L64,2169 L64,2197 L36,2197 L36,2169 Z" id="Fill-362"></path>
        </g>
    </g>
</svg>